<svg xmlns="http://www.w3.org/2000/svg" enable-background="new 0 0 183.376 133.488" viewBox="0 0 183.376 133.488"><path d="M83.1994,75.8208c0.5716-2.0317,0.3498-4.2828-0.8104-6.2425c-0.6429-1.0858-1.507-1.956-2.4955-2.6042l-1.9844,0.3763   L83.1994,75.8208z" fill="#ffed0a"/><circle cx="22.501" cy="22.502" r="22.5" transform="rotate(-27.884 22.5 22.5)" fill="#ffed0a"/><path d="M79.5842,83.4712l-5.4548,3.4067c-1.1036,0.6893-1.4424,2.1563-0.7531,3.2599l0.7963,1.275l18.7937-12.2183l-0.5803-0.9293   c-0.6893-1.1036-2.1561-1.4429-3.2597-0.7537l-5.4548,3.4067l-8.1867-13.1082l-5.08,0.9634L79.5842,83.4712z" fill="#ffed0a"/><path d="M70.0138,127.21c1.1885-0.9111,2.251-1.7588,3.1631-2.5869l36.7402-23.8862l58.3271,12.5483   c6.748,1.4575,13.3975-2.8418,14.8496-9.5913c1.4521-6.749-2.8428-13.3975-9.5918-14.8491L110.092,75.2027   c-3.2549-0.6997-6.6514-0.0737-9.4424,1.7402l-35.9521,23.3735c-1.3026-1.7463-2.5454-3.5604-3.7447-5.4095   c-0.5356-0.8258-1.0612-1.6586-1.5772-2.4984c0.3427-0.1426,0.6791-0.3083,1.0057-0.5017l15.8853-9.4059l-8.2863-13.2676   l-1.0453,0.1982l-9.3897,5.5597l-3.2017-3.1718l-19.7408,3.7439c-0.6338,0.1206-1.2832,0.1816-1.9277,0.1816   c-4.9365,0-9.1895-3.5249-10.1113-8.3813c-0.5127-2.7036,0.0586-5.4448,1.6074-7.7183c1.5488-2.2739,3.8906-3.8086,6.5938-4.3213   L38.064,53.94c-4.5618-4.1551-10.3815-6.1746-15.4222-4.062c-8.1133,3.4023-15.2568,14.5195-10.5322,29.2651   c4.3881,13.4252,8.8231,22.9613,15.7863,32.6057c3.5325,4.8926,7.7038,9.8128,12.8738,15.2834   C52.9084,138.0616,62.7404,132.7857,70.0138,127.21z" fill="#ffed0a"/><path d="M94.73,49.2115c0-1.3103,0.1938-2.5739,0.5311-3.778L31.1935,57.584c-4.3418,0.8232-7.1934,5.0098-6.3701,9.3506   c0.7285,3.8374,4.084,6.5107,7.8516,6.5107c0.4941,0,0.9961-0.0459,1.499-0.1416l66.5326-12.618   C97.098,58.1428,94.73,53.9519,94.73,49.2115z" fill="#ffed0a"/><path d="M97.0296,49.2113c0,6.4829,5.2555,11.7383,11.7385,11.7383c6.483,0,11.7385-5.2554,11.7385-11.7383   s-5.2555-11.7384-11.7385-11.7384C102.2851,37.4729,97.0296,42.7284,97.0296,49.2113z M108.7681,43.6852   c3.0519,0,5.5261,2.4741,5.5261,5.5261c0,3.0519-2.4741,5.5261-5.5261,5.5261c-3.052,0-5.5261-2.4741-5.5261-5.5261   C103.242,46.1593,105.7161,43.6852,108.7681,43.6852z" fill="#ffed0a"/><path d="M108.7681,51.5339c1.2827,0,2.3225-1.0399,2.3225-2.3226s-1.0398-2.3226-2.3225-2.3226s-2.3226,1.0399-2.3226,2.3226   S107.4854,51.5339,108.7681,51.5339z" fill="#ffed0a"/></svg>