<?xml version="1.0" encoding="UTF-8"?>
<!DOCTYPE svg PUBLIC "-//W3C//DTD SVG 1.1//EN" "http://www.w3.org/Graphics/SVG/1.1/DTD/svg11.dtd">
<svg xmlns="http://www.w3.org/2000/svg" version="1.1" width="632px" height="642px" style="shape-rendering:geometricPrecision; text-rendering:geometricPrecision; image-rendering:optimizeQuality; fill-rule:evenodd; clip-rule:evenodd" xmlns:xlink="http://www.w3.org/1999/xlink">
<g><path style="opacity:1" fill="#fffefe" d="M -0.5,-0.5 C 210.167,-0.5 420.833,-0.5 631.5,-0.5C 631.5,213.5 631.5,427.5 631.5,641.5C 420.833,641.5 210.167,641.5 -0.5,641.5C -0.5,427.5 -0.5,213.5 -0.5,-0.5 Z"/></g>
<g><path style="opacity:1" fill="#ffee2c" d="M 386.5,9.5 C 391.784,11.8827 394.451,16.0494 394.5,22C 392.94,32.181 391.274,42.3477 389.5,52.5C 389.244,58.5679 391.244,63.7346 395.5,68C 394.892,68.8699 394.059,69.3699 393,69.5C 389.187,67.6829 386.853,64.6829 386,60.5C 385.333,55.5 385.333,50.5 386,45.5C 390.37,33.495 390.537,21.495 386.5,9.5 Z"/></g>
<g><path style="opacity:1" fill="#ffee30" d="M 348.5,44.5 C 354.217,46.3937 357.717,50.3937 359,56.5C 359.667,61.5 359.667,66.5 359,71.5C 355.303,81.6454 354.637,91.9787 357,102.5C 358.942,107.497 360.776,112.497 362.5,117.5C 360.097,117.607 358.264,116.607 357,114.5C 351.347,105.562 349.014,95.895 350,85.5C 353.912,76.5236 355.245,67.1902 354,57.5C 351.603,53.376 349.769,49.0427 348.5,44.5 Z"/></g>
<g><path style="opacity:1" fill="#ffee2a" d="M 425.5,47.5 C 427.124,47.3601 428.29,48.0267 429,49.5C 430.663,60.4492 431.33,71.4492 431,82.5C 429,87.1667 427,91.8333 425,96.5C 424.667,101.5 424.333,106.5 424,111.5C 423.586,111.957 423.086,112.291 422.5,112.5C 420.087,109.43 418.754,105.93 418.5,102C 421.191,94.1177 424.024,86.2844 427,78.5C 427.667,75.1667 427.667,71.8333 427,68.5C 424.641,61.5885 424.141,54.5885 425.5,47.5 Z"/></g>
<g><path style="opacity:1" fill="#ffee2c" d="M 374.5,85.5 C 379.597,85.5427 384.264,87.0427 388.5,90C 401.66,99.6371 410.66,112.137 415.5,127.5C 415.011,133.811 412.844,139.478 409,144.5C 405.5,148 402,151.5 398.5,155C 397.167,155.667 395.833,155.667 394.5,155C 402.756,147.997 408.089,139.164 410.5,128.5C 409.094,122.354 406.594,116.687 403,111.5C 397.366,104.864 391.366,98.531 385,92.5C 387.543,99.7916 389.71,107.292 391.5,115C 391.287,118.642 390.453,122.142 389,125.5C 386.394,130.435 383.394,135.102 380,139.5C 379.412,144.528 379.578,149.528 380.5,154.5C 375.97,153.646 373.97,150.812 374.5,146C 374.667,144.5 374.833,143 375,141.5C 378.603,135.293 381.936,128.96 385,122.5C 385.667,118.167 385.667,113.833 385,109.5C 381.763,101.361 378.263,93.3614 374.5,85.5 Z"/></g>
<g><path style="opacity:1" fill="#ffed0e" d="M 250.5,127.5 C 282.751,125.277 303.251,139.611 312,170.5C 313.845,201.315 300.011,221.148 270.5,230C 239.195,232.356 219.028,218.523 210,188.5C 207.693,157.645 221.193,137.311 250.5,127.5 Z"/></g>
<g><path style="opacity:1" fill="#ffed10" d="M 386.5,148.5 C 388.5,148.5 390.5,148.5 392.5,148.5C 392.17,164.675 392.504,180.675 393.5,196.5C 404.211,200.918 408.378,208.918 406,220.5C 402.696,241.088 395.03,259.755 383,276.5C 364.301,294.242 343.967,296.242 322,282.5C 321.5,318.165 321.333,353.832 321.5,389.5C 303.823,389.709 286.49,392.209 269.5,397C 257.048,401.955 248.048,410.455 242.5,422.5C 227.5,422.5 212.5,422.5 197.5,422.5C 197.5,395.5 197.5,368.5 197.5,341.5C 197.336,338.813 197.503,336.146 198,333.5C 199.062,332.903 200.228,332.57 201.5,332.5C 216.439,334.707 231.439,336.373 246.5,337.5C 242.695,340.806 239.862,344.806 238,349.5C 236.742,359.21 238.076,368.543 242,377.5C 253.208,380.661 264.041,379.494 274.5,374C 275.944,372.874 276.61,371.374 276.5,369.5C 275.428,362.402 273.928,355.402 272,348.5C 268.899,342.117 263.899,338.117 257,336.5C 256.333,334.5 256.333,332.5 257,330.5C 264.097,321.73 265.43,312.063 261,301.5C 257.908,297.072 253.741,294.239 248.5,293C 231.791,290.625 215.124,287.958 198.5,285C 197.969,280.724 196.969,276.557 195.5,272.5C 191.348,276.151 187.348,279.984 183.5,284C 192.462,287.908 201.795,290.574 211.5,292C 223.583,293.141 235.583,294.808 247.5,297C 257.257,301.346 261.091,308.846 259,319.5C 254.326,329.163 246.659,333.163 236,331.5C 215.626,330.958 195.793,327.458 176.5,321C 144.72,307.014 138.554,285.848 158,257.5C 173.802,239.677 192.802,226.677 215,218.5C 218.012,218.726 220.845,219.559 223.5,221C 241.196,235.09 260.863,238.423 282.5,231C 288.17,228.167 293.503,224.834 298.5,221C 300.914,219.115 303.581,218.448 306.5,219C 309.618,220.059 312.618,221.392 315.5,223C 322.764,232.267 330.764,240.934 339.5,249C 343.135,252.657 347.468,254.323 352.5,254C 356.502,250.189 359.669,245.689 362,240.5C 365.388,228.273 369.388,216.273 374,204.5C 376.841,200.506 380.674,197.839 385.5,196.5C 386.499,180.514 386.833,164.514 386.5,148.5 Z"/></g>
<g><path style="opacity:1" fill="#fff684" d="M 386.5,148.5 C 388.607,147.532 390.941,147.198 393.5,147.5C 393.5,163.833 393.5,180.167 393.5,196.5C 392.504,180.675 392.17,164.675 392.5,148.5C 390.5,148.5 388.5,148.5 386.5,148.5 Z"/></g>
<g><path style="opacity:1" fill="#ffed17" d="M 388.5,380.5 C 389.103,385.619 388.436,390.285 386.5,394.5C 375.159,392.732 363.826,390.899 352.5,389C 350.103,377.539 353.936,368.706 364,362.5C 364.493,358.032 365.493,353.698 367,349.5C 369.333,348.167 371.667,348.167 374,349.5C 375.204,353.716 375.87,358.049 376,362.5C 379.632,365.13 382.965,368.13 386,371.5C 387.908,374.206 388.741,377.206 388.5,380.5 Z"/></g>
<g><path style="opacity:1" fill="#ffed17" d="M 445.5,368.5 C 449.295,367.959 451.295,369.625 451.5,373.5C 449.732,377.198 448.399,381.031 447.5,385C 452.074,397.316 449.574,408.149 440,417.5C 431.315,410.071 421.482,404.571 410.5,401C 409.978,400.439 409.645,399.772 409.5,399C 414.301,385.193 423.968,377.86 438.5,377C 440.668,374.002 443.001,371.169 445.5,368.5 Z"/></g>
<g><path style="opacity:1" fill="#ffed13" d="M 114.5,375.5 C 117.785,375.269 120.285,376.603 122,379.5C 122.16,383.287 122.826,386.954 124,390.5C 128,393.167 131.333,396.5 134,400.5C 135.391,407.746 135.891,415.079 135.5,422.5C 123.5,422.5 111.5,422.5 99.5,422.5C 99.3337,415.159 99.5003,407.826 100,400.5C 103.333,397.167 106.667,393.833 110,390.5C 110.776,385.251 112.276,380.251 114.5,375.5 Z"/></g>
<g><path style="opacity:1" fill="#ffed16" d="M 164.5,374.5 C 166.624,375.031 168.124,376.365 169,378.5C 169.996,382.474 170.829,386.474 171.5,390.5C 175.81,392.976 179.31,396.31 182,400.5C 183.391,407.746 183.891,415.079 183.5,422.5C 171.5,422.5 159.5,422.5 147.5,422.5C 144.232,409.561 147.732,398.895 158,390.5C 159.153,387.289 159.82,383.956 160,380.5C 160.804,377.854 162.304,375.854 164.5,374.5 Z"/></g>
<g><path style="opacity:1" fill="#ffed0f" d="M 512.5,380.5 C 542.948,379.457 562.448,393.457 571,422.5C 571.499,426.486 571.666,430.486 571.5,434.5C 567.778,433.704 564.111,432.704 560.5,431.5C 545.533,435.099 530.533,438.599 515.5,442C 500.198,443.314 484.864,443.814 469.5,443.5C 466.731,410.677 481.064,389.677 512.5,380.5 Z"/></g>
<g><path style="opacity:1" fill="#fff691" d="M 388.5,380.5 C 389.487,385.305 389.821,390.305 389.5,395.5C 388.209,395.737 387.209,395.404 386.5,394.5C 388.436,390.285 389.103,385.619 388.5,380.5 Z"/></g>
<g><path style="opacity:1" fill="#ffed0d" d="M 310.5,393.5 C 347.558,391.487 383.558,396.654 418.5,409C 432.304,414.97 442.304,424.804 448.5,438.5C 447.667,438.833 446.833,439.167 446,439.5C 437.562,436.798 429.062,434.298 420.5,432C 405.451,431.367 396.784,438.534 394.5,453.5C 394.959,460.391 397.626,466.224 402.5,471C 409.948,475.313 417.614,479.146 425.5,482.5C 303.835,483.667 182.168,483.833 60.5,483C 49.9396,479.439 43.1063,472.272 40,461.5C 39.7276,437.11 51.8943,425.61 76.5,427C 132.836,426.833 189.17,426.333 245.5,425.5C 253.864,408.63 267.531,399.13 286.5,397C 294.667,395.982 302.667,394.815 310.5,393.5 Z"/></g>
<g><path style="opacity:1" fill="#fff8ae" d="M 197.5,341.5 C 197.5,368.5 197.5,395.5 197.5,422.5C 212.5,422.5 227.5,422.5 242.5,422.5C 227.342,423.496 212.009,423.83 196.5,423.5C 196.169,395.995 196.502,368.662 197.5,341.5 Z"/></g>
<g><path style="opacity:1" fill="#ffed11" d="M 410.5,436.5 C 421.206,436.591 431.54,438.758 441.5,443C 479.078,451.871 516.078,449.871 552.5,437C 563.431,434.615 571.265,438.448 576,448.5C 576.837,463.023 570.003,471.856 555.5,475C 516.292,487.144 476.625,488.81 436.5,480C 426.377,477.515 416.71,473.848 407.5,469C 396.005,456.962 397.005,446.129 410.5,436.5 Z"/></g>
<g><path style="opacity:1" fill="#ffed13" d="M 30.5,493.5 C 222.168,493.167 413.834,493.5 605.5,494.5C 607.856,497.022 610.023,499.688 612,502.5C 612.517,512.666 613.017,522.833 613.5,533C 613.74,539.323 612.906,545.49 611,551.5C 608.924,554.588 606.091,556.421 602.5,557C 594.841,557.5 587.174,557.666 579.5,557.5C 579.5,584.5 579.5,611.5 579.5,638.5C 571.167,638.5 562.833,638.5 554.5,638.5C 554.653,611.825 554.32,585.158 553.5,558.5C 391.167,558.5 228.833,558.5 66.5,558.5C 66.5,585.167 66.5,611.833 66.5,638.5C 58.1667,638.5 49.8333,638.5 41.5,638.5C 41.5,611.5 41.5,584.5 41.5,557.5C 33.16,557.666 24.8267,557.5 16.5,557C 11.2712,554.442 8.43784,550.275 8,544.5C 7.18277,530.469 7.51611,516.469 9,502.5C 10.1049,499.063 12.2716,496.563 15.5,495C 20.6835,494.826 25.6835,494.326 30.5,493.5 Z"/></g>
<g><path style="opacity:1" fill="#fff258" d="M 320.5,592.5 C 320.5,582.833 320.5,573.167 320.5,563.5C 301.833,563.5 283.167,563.5 264.5,563.5C 264.5,578.833 264.5,594.167 264.5,609.5C 263.504,594.009 263.17,578.342 263.5,562.5C 282.833,562.5 302.167,562.5 321.5,562.5C 321.827,572.681 321.494,582.681 320.5,592.5 Z"/></g>
<g><path style="opacity:1" fill="#ffed16" d="M 196.5,562.5 C 215.5,562.5 234.5,562.5 253.5,562.5C 253.667,579.503 253.5,596.503 253,613.5C 250.08,634.07 238.247,642.903 217.5,640C 201.662,634.512 194.829,623.345 197,606.5C 196.5,591.837 196.333,577.17 196.5,562.5 Z"/></g>
<g><path style="opacity:1" fill="#ffed0c" d="M 320.5,592.5 C 320.666,602.839 320.5,613.172 320,623.5C 309.274,640.629 294.774,644.796 276.5,636C 267.788,629.34 263.788,620.507 264.5,609.5C 264.5,594.167 264.5,578.833 264.5,563.5C 283.167,563.5 301.833,563.5 320.5,563.5C 320.5,573.167 320.5,582.833 320.5,592.5 Z"/></g>
</svg>
