<svg xmlns="http://www.w3.org/2000/svg" enable-background="new 0 0 240.001 194.614" viewBox="0 0 240.001 194.614"><path d="M109.552,42.426c1.655,0.866,3.445,1.54,5.35,1.983c5.463,1.272,10.923,0.431,15.53-1.983   c1.938-1.016,3.724-2.31,5.296-3.844c2.264-2.209,4.082-4.915,5.265-8c0.368-0.959,0.68-1.951,0.919-2.979   c2.818-12.1-4.707-24.193-16.807-27.012c-12.1-2.816-24.193,4.709-27.012,16.809c-1.062,4.561-0.652,9.12,0.916,13.183   c1.16,3.006,2.955,5.74,5.261,8C105.813,40.096,107.587,41.397,109.552,42.426z" fill="#ffed0a"/><path d="M5.668,58.248c0,2.762,2.238,5,5,5h1.334c2.761,0,5-2.238,5-5V38.582h36.277c-3.413,12.549-4.965,21.474-5.003,28.439   c0.05,4.216,0.472,7.939,2.661,11.737c1.1,1.863,2.814,3.674,4.935,4.838c2.089,1.172,4.396,1.636,6.376,1.636   c0.022,0,0.044,0,0.065,0c3.15-0.031,5.594-0.909,7.785-1.912c3.8-1.807,7.045-4.294,10.237-7.026   c2.194-1.904,4.336-3.953,6.336-5.978l9.805,41.776L68.148,124.79c-5.656,2.534-8.87,8.637-7.76,14.735l8,44   c1.185,6.518,6.867,11.087,13.266,11.087c0.801,0,1.614-0.072,2.43-0.22c7.336-1.334,12.202-8.362,10.867-15.696l-6.109-33.594   l29.016-13.006c0.767-0.344,1.478-0.758,2.146-1.218c0.668,0.46,1.379,0.874,2.146,1.218l29.013,13.005l-6.108,33.594   c-1.334,7.335,3.532,14.363,10.868,15.699c0.817,0.148,1.629,0.22,2.431,0.22c6.399,0,12.082-4.569,13.269-11.089l7.998-44   c1.108-6.098-2.105-12.2-7.761-14.734l-28.326-12.7l9.73-41.456c3.135,3.154,6.563,6.339,10.189,9.002   c1.913,1.392,3.875,2.654,6.061,3.683c2.191,1.004,4.635,1.881,7.788,1.91c0.026,0,0.053,0,0.079,0c1.974,0,4.275-0.466,6.36-1.633   c3.239-1.779,5.302-4.874,6.27-7.683c1.012-2.867,1.31-5.716,1.324-8.895c-0.04-6.962-1.592-15.889-5.002-28.438h36.67v19.666   c0,2.762,2.238,5,5,5h1.334c2.76,0,5-2.238,5-5V38.582h5.666v-8h-5.666V10.916c0-2.762-2.24-5-5-5h-1.334c-2.762,0-5,2.238-5,5   v19.666h-38.973c-1.597-4.473-6.424-6.97-11.031-5.598c-2.855,0.849-4.964,2.994-5.897,5.598h-23.984   c-1.041,2.997-2.619,5.695-4.615,8h29.149c3.528,12.136,5.176,20.727,5.582,25.9c-0.208-0.163-0.418-0.331-0.628-0.506   c-3.841-3.071-8.313-7.683-11.663-11.435c-1.684-1.881-3.106-3.554-4.096-4.743c-0.496-0.596-0.883-1.071-1.142-1.39   c-0.26-0.321-0.371-0.461-0.371-0.461c-1.866-2.357-4.674-3.521-7.464-3.396c-0.472-0.075-0.948-0.126-1.438-0.126h-12.152   c-4.039,2.894-8.966,4.575-14.254,4.575c-1.867,0-3.742-0.217-5.574-0.642c-3.188-0.742-6.137-2.083-8.72-3.934H93.575   c-0.514,0-1.015,0.057-1.509,0.139c-2.896-0.234-5.851,0.935-7.788,3.384h-0.002c0,0-0.048,0.06-0.178,0.223   C83.135,47.375,78.29,53.3,72.89,58.647c-2.191,2.179-4.493,4.26-6.513,5.826c0.407-5.176,2.055-13.763,5.584-25.891h29.594   c-0.85-0.98-1.649-2.016-2.349-3.14c-0.964-1.549-1.737-3.18-2.328-4.86H72.511c-0.934-2.605-3.042-4.75-5.896-5.599   c-4.607-1.371-9.435,1.126-11.033,5.599H17.001V10.916c0-2.762-2.239-5-5-5h-1.334c-2.762,0-5,2.238-5,5v19.666H0v8h5.668V58.248z" fill="#ffed0a"/></svg>