<svg xmlns="http://www.w3.org/2000/svg" version="1.0" preserveAspectRatio="xMidYMid meet" viewBox="139 149.05 474 453.94">

<g transform="translate(0.000000,752.000000) scale(0.100000,-0.100000)" fill="#ffed0a" stroke="none">
<path d="M3620 6010 c-131 -48 -232 -152 -271 -282 -92 -301 171 -603 477 -551 321 55 470 422 279 682 -51 70 -140 133 -219 156 -71 21 -198 19 -266 -5z" fill="#ffed0a"/>
<path d="M3696 5078 c-284 -39 -450 -354 -322 -613 85 -172 272 -269 457 -236 199 36 343 194 356 391 20 281 -212 497 -491 458z" fill="#ffed0a"/>
<path d="M3271 5045 c-94 -41 -238 -173 -312 -285 -64 -97 -149 -285 -149 -330 0 -6 56 -10 158 -10 l157 0 38 78 c20 42 46 88 57 102 l20 25 0 -102 0 -103 31 0 c28 0 31 2 24 23 -29 89 -44 160 -44 207 -1 127 55 264 146 357 l51 53 -71 0 c-40 -1 -87 -7 -106 -15z" fill="#ffed0a"/>
<path d="M4122 5008 c92 -94 148 -230 147 -358 0 -47 -15 -118 -44 -207 -7 -21 -4 -23 24 -23 l31 0 0 103 0 102 20 -25 c11 -14 37 -60 57 -102 l38 -78 158 0 c100 0 157 4 157 10 0 26 -54 160 -94 236 -80 150 -197 279 -322 354 -52 31 -67 35 -141 39 l-83 3 52 -54z" fill="#ffed0a"/>
<path d="M1652 4708 c-7 -7 -12 -39 -12 -75 l0 -63 -49 0 c-35 0 -51 -4 -55 -16 -3 -9 -6 -60 -6 -115 l0 -99 -70 0 -70 0 0 -45 0 -45 70 0 70 0 0 -103 c0 -67 4 -107 12 -115 7 -7 31 -12 55 -12 l43 0 0 -59 c0 -38 5 -63 14 -70 9 -8 43 -11 93 -9 l78 3 3 183 2 182 253 0 252 0 42 -83 c108 -210 277 -468 369 -561 66 -68 114 -91 185 -91 75 1 128 35 159 102 56 123 94 193 120 224 l29 34 -2 -380 -2 -380 -255 -36 c-140 -19 -266 -39 -280 -43 -68 -21 -138 -96 -153 -166 -3 -14 -40 -279 -82 -589 -89 -655 -89 -629 -1 -716 93 -92 208 -100 312 -20 68 52 76 85 144 590 34 253 65 463 68 466 4 4 162 28 352 54 190 26 362 53 382 60 30 10 45 10 80 -1 24 -7 196 -34 383 -60 187 -25 343 -49 347 -53 3 -3 34 -213 68 -466 54 -407 64 -466 88 -515 79 -161 296 -172 400 -20 49 73 49 76 -18 569 -97 721 -97 718 -124 765 -25 43 -67 79 -113 97 -16 6 -145 28 -288 48 l-260 37 -2 379 -2 380 30 -35 c17 -19 48 -73 70 -120 69 -146 73 -152 113 -179 49 -32 132 -35 190 -7 51 25 126 102 198 202 67 94 202 316 261 431 l42 83 252 0 253 0 2 -182 3 -183 78 -3 c50 -2 84 1 93 9 9 7 14 32 14 70 l0 59 36 0 c69 0 74 8 74 125 l0 105 70 0 70 0 0 45 0 45 -70 0 -70 0 0 99 c0 55 -3 106 -6 115 -4 12 -20 16 -55 16 l-49 0 0 63 c0 36 -5 68 -12 75 -17 17 -152 16 -167 -1 -6 -8 -12 -80 -13 -188 l-3 -174 -254 -3 -253 -2 -38 34 c-76 68 -162 68 -227 0 l-32 -34 -381 0 -382 0 -46 -41 c-179 -157 -445 -157 -624 0 l-46 41 -382 0 -381 0 -32 34 c-65 68 -151 68 -227 0 l-38 -34 -253 2 -254 3 -3 174 c-1 108 -7 180 -13 188 -15 17 -150 18 -167 1z m1548 -461 c0 -2 -25 -21 -56 -42 -67 -46 -166 -152 -214 -228 -19 -31 -38 -56 -42 -57 -6 0 -126 185 -182 283 l-27 47 261 0 c143 0 260 -2 260 -3z m1622 -29 c-11 -18 -34 -57 -52 -87 -56 -96 -132 -211 -138 -211 -4 1 -23 26 -42 57 -48 76 -147 182 -214 228 -31 21 -56 40 -56 42 0 1 117 3 261 3 l261 0 -20 -32z" fill="#ffed0a"/>
<path d="M2820 4170 c0 -14 60 -110 68 -109 4 0 29 27 55 60 l48 59 -86 0 c-49 0 -85 -4 -85 -10z" fill="#ffed0a"/>
<path d="M4577 4121 c26 -33 51 -60 54 -60 7 -1 69 97 69 110 0 5 -38 9 -85 9 l-86 0 48 -59z" fill="#ffed0a"/>
<path d="M2064 4165 c3 -9 6 -21 6 -25 0 -23 65 -81 102 -91 52 -14 192 -38 196 -34 2 2 -17 38 -41 82 l-45 78 -112 3 c-100 2 -112 1 -106 -13z" fill="#ffed0a"/>
<path d="M5222 4148 c-49 -83 -73 -130 -70 -133 4 -4 143 20 196 34 37 10 102 68 102 91 0 4 3 15 6 24 5 14 -8 16 -104 16 l-110 0 -20 -32z" fill="#ffed0a"/>
<path d="M3730 2636 c-3 -2 -157 -26 -342 -52 l-337 -47 -6 -56 c-4 -31 -9 -64 -11 -73 -5 -17 34 -18 726 -18 692 0 731 1 726 18 -2 9 -7 43 -11 75 -3 31 -10 57 -14 57 -7 0 -552 76 -691 97 -19 3 -37 2 -40 -1z" fill="#ffed0a"/>
<path d="M3106 2273 c-3 -21 -17 -157 -31 -303 -23 -240 -24 -270 -11 -313 20 -67 57 -111 118 -141 125 -63 279 -6 329 121 6 15 25 173 43 351 l32 322 -237 0 -237 0 -6 -37z" fill="#ffed0a"/>
<path d="M3966 1988 c18 -178 37 -336 43 -351 49 -125 200 -182 327 -123 60 28 100 76 120 143 13 43 12 73 -11 313 -14 146 -28 282 -31 303 l-6 37 -237 0 -237 0 32 -322z" fill="#ffed0a"/>
</g>
</svg>