<svg xmlns="http://www.w3.org/2000/svg" version="1.0" width="200.000000pt" height="200.000000pt" viewBox="0 0 200.000000 200.000000" preserveAspectRatio="xMidYMid meet">

<g transform="translate(0.000000,200.000000) scale(0.100000,-0.100000)" fill="#ffed0a" stroke="none">
<path d="M1009 1890 c-51 -9 -98 -46 -120 -94 -23 -52 -23 -90 0 -142 57 -126 232 -135 299 -16 71 128 -34 277 -179 252z" fill="#ffed0a"/>
<path d="M864 1512 c-6 -4 -21 -27 -34 -52 -12 -25 -38 -67 -57 -93 -19 -27 -33 -51 -31 -53 3 -2 40 -8 84 -14 43 -6 96 -18 116 -27 30 -13 62 -15 155 -11 136 6 173 17 173 50 0 21 1 21 16 6 43 -43 -25 -65 -229 -75 -114 -5 -130 -8 -143 -27 -20 -28 -18 -48 8 -76 21 -22 24 -23 157 -17 207 9 302 41 336 113 34 73 -4 151 -114 237 l-62 47 -182 0 c-100 0 -187 -4 -193 -8z" fill="#ffed0a"/>
<path d="M484 1320 c-50 -20 -71 -101 -39 -147 19 -27 54 -37 220 -59 72 -9 132 -19 134 -21 3 -2 10 -47 17 -100 7 -55 18 -99 25 -104 27 -16 187 -39 274 -39 50 0 121 7 160 15 99 21 120 19 144 -11 44 -56 17 -106 -69 -130 -76 -22 -311 -30 -408 -14 -110 17 -200 47 -212 70 -13 24 -13 77 0 85 29 18 -1 25 -112 25 -211 0 -481 -51 -530 -101 -39 -39 -39 -90 1 -130 36 -35 43 -35 170 -5 146 36 273 49 425 44 129 -3 137 -5 163 -30 44 -41 67 -48 165 -55 169 -10 365 37 430 104 97 101 55 223 -75 223 -19 0 -76 -9 -128 -20 -52 -11 -122 -23 -155 -26 l-62 -7 -11 89 c-18 137 -17 134 -51 134 -66 0 -96 88 -45 128 14 11 21 23 16 26 -7 5 -419 68 -425 65 0 0 -11 -4 -22 -9z" fill="#ffed0a"/>
<path d="M417 1153 c-14 -14 -6 -61 13 -78 16 -14 30 -17 77 -12 32 3 76 11 97 17 50 15 34 26 -48 35 -34 4 -76 15 -94 26 -38 22 -36 21 -45 12z" fill="#ffed0a"/>
<path d="M1583 1105 c-47 -28 -83 -91 -83 -145 0 -54 36 -117 84 -145 114 -67 256 14 256 145 0 132 -144 213 -257 145z" fill="#ffed0a"/>
<path d="M1108 1113 c-54 -2 -98 -7 -98 -12 0 -15 21 -176 25 -187 3 -11 78 -5 183 17 l52 10 0 90 0 89 -32 -2 c-18 -1 -77 -4 -130 -5z" fill="#ffed0a"/>
<path d="M778 882 c-50 -16 -62 -69 -23 -101 94 -73 510 -90 638 -25 37 20 39 76 2 100 -22 15 -29 15 -92 -2 -104 -27 -301 -23 -420 8 -50 13 -97 22 -105 20z" fill="#ffed0a"/>
<path d="M1542 748 c-7 -7 -12 -33 -12 -60 0 -37 4 -50 19 -58 11 -5 83 -10 160 -10 128 0 143 2 161 20 22 22 26 70 10 101 -10 18 -23 19 -168 19 -110 0 -162 -4 -170 -12z" fill="#ffed0a"/>
<path d="M850 615 c0 -11 11 -15 43 -14 l42 1 -35 13 c-46 18 -50 18 -50 0z" fill="#ffed0a"/>
<path d="M1220 610 l-35 -7 43 -2 c27 0 41 3 37 9 -3 6 -7 9 -8 9 -1 -1 -18 -5 -37 -9z" fill="#ffed0a"/>
<path d="M12 568 c-7 -7 -12 -43 -12 -89 0 -91 12 -109 70 -109 l39 0 3 -132 3 -133 38 -3 37 -3 0 135 0 136 810 0 810 0 0 -136 0 -135 38 3 37 3 3 133 3 132 39 0 c58 0 70 18 70 109 0 46 -5 82 -12 89 -17 17 -1959 17 -1976 0z" fill="#ffed0a"/>
<path d="M857 353 c-12 -11 -7 -167 6 -193 18 -37 71 -60 110 -49 55 16 67 42 67 152 l0 97 -88 0 c-49 0 -92 -3 -95 -7z" fill="#ffed0a"/>
<path d="M1080 260 c0 -94 2 -103 25 -125 33 -34 96 -35 130 -1 29 29 37 69 33 156 l-3 65 -92 3 -93 3 0 -101z" fill="#ffed0a"/>
</g>
</svg>