<?xml version="1.0" encoding="UTF-8"?>
<!DOCTYPE svg PUBLIC "-//W3C//DTD SVG 1.1//EN" "http://www.w3.org/Graphics/SVG/1.1/DTD/svg11.dtd">
<svg xmlns="http://www.w3.org/2000/svg" version="1.1" width="484px" height="516px" style="shape-rendering:geometricPrecision; text-rendering:geometricPrecision; image-rendering:optimizeQuality; fill-rule:evenodd; clip-rule:evenodd" xmlns:xlink="http://www.w3.org/1999/xlink">
<g><path style="opacity:0.621" fill="#fff7a5" d="M 252.5,2.5 C 243.134,2.27922 233.801,2.61255 224.5,3.5C 233.728,0.0244194 243.061,-0.308914 252.5,2.5 Z"/></g>
<g><path style="opacity:1" fill="#ffed18" d="M 252.5,2.5 C 263.59,4.87673 272.59,10.5434 279.5,19.5C 279.427,21.0269 280.094,22.0269 281.5,22.5C 282.167,22.5 282.5,22.8333 282.5,23.5C 282.427,25.0269 283.094,26.0269 284.5,26.5C 297.59,54.7301 291.256,77.5634 265.5,95C 261.578,96.7981 257.578,98.2981 253.5,99.5C 243.758,101.037 234.091,100.703 224.5,98.5C 221.843,98.0652 219.509,97.0652 217.5,95.5C 217.027,94.0937 216.027,93.427 214.5,93.5C 214.027,92.0937 213.027,91.427 211.5,91.5C 210.738,89.7376 209.404,88.7376 207.5,88.5C 200.592,83.0234 195.925,76.0234 193.5,67.5C 193.59,64.8478 192.924,62.5145 191.5,60.5C 190.167,54.1667 190.167,47.8333 191.5,41.5C 192.924,39.4855 193.59,37.1522 193.5,34.5C 193.796,32.597 194.463,30.9303 195.5,29.5C 197.408,28.5144 198.408,26.8477 198.5,24.5C 199.781,21.5526 201.781,19.2193 204.5,17.5C 205.833,16.8333 206.833,15.8333 207.5,14.5C 209.949,11.4442 212.949,9.11083 216.5,7.5C 218.027,7.57298 219.027,6.90632 219.5,5.5C 220.93,4.46253 222.597,3.79586 224.5,3.5C 233.801,2.61255 243.134,2.27922 252.5,2.5 Z"/></g>
<g><path style="opacity:0.537" fill="#fff9b6" d="M 219.5,5.5 C 219.027,6.90632 218.027,7.57298 216.5,7.5C 216.973,6.09368 217.973,5.42702 219.5,5.5 Z"/></g>
<g><path style="opacity:0.467" fill="#fff8b0" d="M 207.5,14.5 C 206.833,15.8333 205.833,16.8333 204.5,17.5C 204.5,15.5 205.5,14.5 207.5,14.5 Z"/></g>
<g><path style="opacity:0.6" fill="#fff9ae" d="M 279.5,19.5 C 280.906,19.9731 281.573,20.9731 281.5,22.5C 280.094,22.0269 279.427,21.0269 279.5,19.5 Z"/></g>
<g><path style="opacity:0.173" fill="#fffbd2" d="M 282.5,23.5 C 283.906,23.9731 284.573,24.9731 284.5,26.5C 283.094,26.0269 282.427,25.0269 282.5,23.5 Z"/></g>
<g><path style="opacity:1" fill="#fff58b" d="M 198.5,24.5 C 198.408,26.8477 197.408,28.5144 195.5,29.5C 195.75,27.326 196.75,25.6594 198.5,24.5 Z"/></g>
<g><path style="opacity:0.431" fill="#fff9b3" d="M 193.5,34.5 C 193.59,37.1522 192.924,39.4855 191.5,41.5C 191.41,38.8478 192.076,36.5145 193.5,34.5 Z"/></g>
<g><path style="opacity:0.02" fill="#fffbd5" d="M 191.5,60.5 C 192.924,62.5145 193.59,64.8478 193.5,67.5C 192.076,65.4855 191.41,63.1522 191.5,60.5 Z"/></g>
<g><path style="opacity:0.006" fill="#fffdec" d="M 53.5,66.5 C 53.1583,65.6618 52.4916,65.3284 51.5,65.5C 52.4657,62.8753 53.4657,62.8753 54.5,65.5C 54.3764,66.1067 54.0431,66.44 53.5,66.5 Z"/></g>
<g><path style="opacity:0.486" fill="#fffac5" d="M 437.5,69.5 C 437.768,67.901 437.434,66.5676 436.5,65.5C 436.369,64.6236 436.702,63.9569 437.5,63.5C 438.793,65.6365 438.793,67.6365 437.5,69.5 Z"/></g>
<g><path style="opacity:0.588" fill="#fff585" d="M 51.5,65.5 C 52.4916,65.3284 53.1583,65.6618 53.5,66.5C 53.5,71.8333 53.5,77.1667 53.5,82.5C 52.6733,77.3491 52.1733,72.0158 52,66.5C 51.6174,67.056 51.1174,67.3893 50.5,67.5C 50.3284,66.5084 50.6618,65.8417 51.5,65.5 Z"/></g>
<g><path style="opacity:1" fill="#ffed2a" d="M 53.5,82.5 C 53.6966,89.5628 55.3633,96.2295 58.5,102.5C 58.427,104.027 59.0937,105.027 60.5,105.5C 62.2181,107.223 63.5514,109.223 64.5,111.5C 64.7376,113.404 65.7376,114.738 67.5,115.5C 67.7376,117.404 68.7376,118.738 70.5,119.5C 70.427,121.027 71.0937,122.027 72.5,122.5C 75.6599,126.148 78.3265,130.148 80.5,134.5C 80.427,136.027 81.0937,137.027 82.5,137.5C 83.7362,139.649 84.7362,141.982 85.5,144.5C 85.5275,147.916 86.5275,150.916 88.5,153.5C 89.811,160.932 89.811,168.265 88.5,175.5C 86.8984,179.239 85.8984,183.239 85.5,187.5C 85.3964,189.703 84.7298,191.703 83.5,193.5C 82.0687,194.78 81.4021,196.447 81.5,198.5C 79.3357,203.5 76.669,208.167 73.5,212.5C 71.9907,213.859 71.324,213.359 71.5,211C 73.2323,201.409 74.2323,191.743 74.5,182C 74.7408,174.521 73.7408,167.354 71.5,160.5C 67.8432,150.188 62.8432,140.521 56.5,131.5C 56.573,129.973 55.9063,128.973 54.5,128.5C 49.3241,122.005 45.6574,114.672 43.5,106.5C 43.2792,97.1339 43.6126,87.8006 44.5,78.5C 44.9925,76.1815 45.9925,74.1815 47.5,72.5C 48.9063,72.0269 49.573,71.0269 49.5,69.5C 49.3284,68.5084 49.6618,67.8417 50.5,67.5C 51.1174,67.3893 51.6174,67.056 52,66.5C 52.1733,72.0158 52.6733,77.3491 53.5,82.5 Z"/></g>
<g><path style="opacity:0.42" fill="#fff8a7" d="M 434.5,68.5 C 434.573,70.0269 433.906,71.0269 432.5,71.5C 432.427,69.9731 433.094,68.9731 434.5,68.5 Z"/></g>
<g><path style="opacity:0.376" fill="#fff8af" d="M 49.5,69.5 C 49.573,71.0269 48.9063,72.0269 47.5,72.5C 47.427,70.9731 48.0937,69.9731 49.5,69.5 Z"/></g>
<g><path style="opacity:1" fill="#ffee2f" d="M 436.5,65.5 C 437.434,66.5676 437.768,67.901 437.5,69.5C 437.418,76.8578 437.752,84.1912 438.5,91.5C 438.259,93.8984 438.926,95.8984 440.5,97.5C 441.674,98.5137 442.34,99.847 442.5,101.5C 442.427,103.027 443.094,104.027 444.5,104.5C 445.338,104.842 445.672,105.508 445.5,106.5C 445.427,108.027 446.094,109.027 447.5,109.5C 450.975,113.104 453.975,117.104 456.5,121.5C 456.427,123.027 457.094,124.027 458.5,124.5C 460.218,126.223 461.551,128.223 462.5,130.5C 462.427,132.027 463.094,133.027 464.5,133.5C 466.341,135.849 467.674,138.515 468.5,141.5C 468.166,144.491 469.166,146.824 471.5,148.5C 472.468,150.607 472.802,152.941 472.5,155.5C 472.5,161.833 472.5,168.167 472.5,174.5C 472.5,175.5 472.5,176.5 472.5,177.5C 470.96,179.838 470.294,182.505 470.5,185.5C 468.926,187.102 468.259,189.102 468.5,191.5C 466.649,199.539 462.982,206.539 457.5,212.5C 455.797,213.66 455.131,212.993 455.5,210.5C 456.972,206.081 457.638,201.414 457.5,196.5C 457.471,191.146 457.805,185.813 458.5,180.5C 457.832,174.492 457.166,168.492 456.5,162.5C 456.59,159.848 455.924,157.515 454.5,155.5C 452.519,151.539 450.519,147.539 448.5,143.5C 448.715,141.821 448.048,140.821 446.5,140.5C 437.627,129.106 431.127,116.439 427,102.5C 424.49,92.9187 425.656,83.9187 430.5,75.5C 431.674,74.4863 432.34,73.153 432.5,71.5C 433.906,71.0269 434.573,70.0269 434.5,68.5C 434.427,66.9731 435.094,65.9731 436.5,65.5 Z"/></g>
<g><path style="opacity:0.125" fill="#fffbca" d="M 432.5,71.5 C 432.34,73.153 431.674,74.4863 430.5,75.5C 430.229,73.6203 430.896,72.287 432.5,71.5 Z"/></g>
<g><path style="opacity:0.525" fill="#fff9b9" d="M 44.5,78.5 C 43.6126,87.8006 43.2792,97.1339 43.5,106.5C 40.6441,97.0564 40.9775,87.723 44.5,78.5 Z"/></g>
<g><path style="opacity:0.706" fill="#fff8a9" d="M 207.5,88.5 C 209.404,88.7376 210.738,89.7376 211.5,91.5C 209.596,91.2624 208.262,90.2624 207.5,88.5 Z"/></g>
<g><path style="opacity:0.875" fill="#fff8a7" d="M 408.5,96.5 C 408.66,94.8008 408.494,93.1341 408,91.5C 407.617,92.056 407.117,92.3893 406.5,92.5C 406.694,90.0882 408.027,89.0882 410.5,89.5C 410.279,92.0673 409.612,94.4006 408.5,96.5 Z"/></g>
<g><path style="opacity:0.282" fill="#fffaca" d="M 23.5,91.5 C 24.472,90.2486 25.1386,90.582 25.5,92.5C 25.4573,93.4164 25.1239,94.0831 24.5,94.5C 24.7373,93.209 24.404,92.209 23.5,91.5 Z"/></g>
<g><path style="opacity:0.478" fill="#fff8a3" d="M 211.5,91.5 C 213.027,91.427 214.027,92.0937 214.5,93.5C 212.973,93.573 211.973,92.9063 211.5,91.5 Z"/></g>
<g><path style="opacity:1" fill="#ffed2a" d="M 23.5,91.5 C 24.404,92.209 24.7373,93.209 24.5,94.5C 24.7947,96.7354 24.4614,98.7354 23.5,100.5C 22.1486,109.045 22.3153,117.711 24,126.5C 24.6972,128.584 25.8639,130.251 27.5,131.5C 29.0652,133.509 30.0652,135.843 30.5,138.5C 30.427,140.027 31.0937,141.027 32.5,141.5C 33.3382,141.842 33.6716,142.508 33.5,143.5C 33.427,145.027 34.0937,146.027 35.5,146.5C 36.3382,146.842 36.6716,147.508 36.5,148.5C 36.427,150.027 37.0937,151.027 38.5,151.5C 38.427,153.027 39.0937,154.027 40.5,154.5C 42.0075,156.181 43.0075,158.181 43.5,160.5C 43.427,162.027 44.0937,163.027 45.5,163.5C 47.4032,166.53 48.7365,169.863 49.5,173.5C 49.1663,176.491 50.1663,178.824 52.5,180.5C 52.1984,183.059 52.5318,185.393 53.5,187.5C 54.6874,193.448 54.6874,199.448 53.5,205.5C 52.0966,208.909 51.4299,212.575 51.5,216.5C 50.2616,218.214 49.595,220.214 49.5,222.5C 48.1515,228.86 45.4849,234.527 41.5,239.5C 40.0937,239.973 39.427,240.973 39.5,242.5C 37.5179,245.81 35.1846,248.81 32.5,251.5C 31.4138,251.38 30.7472,250.713 30.5,249.5C 31.2234,247.218 31.5567,244.884 31.5,242.5C 32.7157,235.872 33.7157,229.205 34.5,222.5C 35.999,217.755 36.6657,212.755 36.5,207.5C 36.3333,204.167 36.1667,200.833 36,197.5C 35.7679,196.263 35.2679,195.263 34.5,194.5C 33.5826,191.583 32.916,188.583 32.5,185.5C 32.7406,183.102 32.0739,181.102 30.5,179.5C 22.9255,167.68 16.9255,155.013 12.5,141.5C 12.4349,138.572 11.7682,135.905 10.5,133.5C 9.1958,126.113 9.52913,118.78 11.5,111.5C 13.0739,109.898 13.7406,107.898 13.5,105.5C 14.0787,102.669 15.412,100.336 17.5,98.5C 19.2624,97.7377 20.2624,96.4044 20.5,94.5C 21.1667,93.1667 22.1667,92.1667 23.5,91.5 Z"/></g>
<g><path style="opacity:0.231" fill="#fffac4" d="M 214.5,93.5 C 216.027,93.427 217.027,94.0937 217.5,95.5C 215.973,95.573 214.973,94.9063 214.5,93.5 Z"/></g>
<g><path style="opacity:1" fill="#ffed29" d="M 408.5,96.5 C 407.424,105.376 407.424,114.043 408.5,122.5C 408.054,125.01 408.72,127.01 410.5,128.5C 412.07,131.314 413.403,134.314 414.5,137.5C 414.427,139.027 415.094,140.027 416.5,140.5C 417.674,141.514 418.34,142.847 418.5,144.5C 418.427,146.027 419.094,147.027 420.5,147.5C 421.338,147.842 421.672,148.508 421.5,149.5C 421.427,151.027 422.094,152.027 423.5,152.5C 425.588,154.336 426.921,156.669 427.5,159.5C 427.427,161.027 428.094,162.027 429.5,162.5C 431.934,165.709 433.601,169.376 434.5,173.5C 434.402,175.553 435.069,177.22 436.5,178.5C 437.219,180.764 437.552,183.097 437.5,185.5C 437.687,194.861 437.354,204.195 436.5,213.5C 436.706,216.495 436.04,219.162 434.5,221.5C 431.412,222.243 430.745,223.91 432.5,226.5C 429.413,235.226 424.747,242.893 418.5,249.5C 417.5,249.5 416.5,249.5 415.5,249.5C 415.5,247.5 415.5,245.5 415.5,243.5C 416.503,238.136 417.503,232.802 418.5,227.5C 420.211,223.119 420.877,218.453 420.5,213.5C 420.5,210.167 420.5,206.833 420.5,203.5C 420.773,197.784 419.773,192.451 417.5,187.5C 416.499,184.828 415.499,182.162 414.5,179.5C 414.771,177.62 414.104,176.287 412.5,175.5C 406.178,165.184 401.178,154.184 397.5,142.5C 395.001,134.026 394.001,125.36 394.5,116.5C 394.5,116.167 394.5,115.833 394.5,115.5C 396.074,113.898 396.741,111.898 396.5,109.5C 397.227,107.046 398.227,104.713 399.5,102.5C 400.906,102.027 401.573,101.027 401.5,99.5C 402.906,99.0269 403.573,98.0269 403.5,96.5C 403.738,94.5956 404.738,93.2623 406.5,92.5C 407.117,92.3893 407.617,92.056 408,91.5C 408.494,93.1341 408.66,94.8008 408.5,96.5 Z"/></g>
<g><path style="opacity:0.71" fill="#fff7a3" d="M 438.5,91.5 C 439.738,93.2143 440.405,95.2143 440.5,97.5C 438.926,95.8984 438.259,93.8984 438.5,91.5 Z"/></g>
<g><path style="opacity:0.78" fill="#fff79c" d="M 20.5,94.5 C 20.2624,96.4044 19.2624,97.7377 17.5,98.5C 17.7376,96.5956 18.7376,95.2623 20.5,94.5 Z"/></g>
<g><path style="opacity:0.345" fill="#fff9b6" d="M 403.5,96.5 C 403.573,98.0269 402.906,99.0269 401.5,99.5C 401.427,97.9731 402.094,96.9731 403.5,96.5 Z"/></g>
<g><path style="opacity:0.362" fill="#fffac3" d="M 224.5,98.5 C 234.091,100.703 243.758,101.037 253.5,99.5C 249.44,101.017 245.107,101.684 240.5,101.5C 234.773,101.902 229.44,100.902 224.5,98.5 Z"/></g>
<g><path style="opacity:0.212" fill="#fffbcd" d="M 401.5,99.5 C 401.573,101.027 400.906,102.027 399.5,102.5C 399.427,100.973 400.094,99.9731 401.5,99.5 Z"/></g>
<g><path style="opacity:0.275" fill="#fffac0" d="M 442.5,101.5 C 443.906,101.973 444.573,102.973 444.5,104.5C 443.094,104.027 442.427,103.027 442.5,101.5 Z"/></g>
<g><path style="opacity:0.345" fill="#fff9b6" d="M 58.5,102.5 C 59.9063,102.973 60.573,103.973 60.5,105.5C 59.0937,105.027 58.427,104.027 58.5,102.5 Z"/></g>
<g><path style="opacity:0.827" fill="#fff79f" d="M 13.5,105.5 C 13.7406,107.898 13.0739,109.898 11.5,111.5C 11.595,109.214 12.2616,107.214 13.5,105.5 Z"/></g>
<g><path style="opacity:0.439" fill="#fff8a8" d="M 445.5,106.5 C 446.906,106.973 447.573,107.973 447.5,109.5C 446.094,109.027 445.427,108.027 445.5,106.5 Z"/></g>
<g><path style="opacity:0.765" fill="#fff7a1" d="M 64.5,111.5 C 66.2624,112.262 67.2624,113.596 67.5,115.5C 65.7376,114.738 64.7376,113.404 64.5,111.5 Z"/></g>
<g><path style="opacity:0.722" fill="#fff8a7" d="M 396.5,109.5 C 396.741,111.898 396.074,113.898 394.5,115.5C 394.595,113.214 395.262,111.214 396.5,109.5 Z"/></g>
<g><path style="opacity:1" fill="#ffed14" d="M 266.5,113.5 C 270.295,114.617 274.295,115.283 278.5,115.5C 283.165,116.057 287.498,117.39 291.5,119.5C 292.78,120.931 294.447,121.598 296.5,121.5C 299.032,122.596 301.365,123.929 303.5,125.5C 304.035,127.446 305.368,128.446 307.5,128.5C 310.784,130.117 313.451,132.45 315.5,135.5C 315.738,137.404 316.738,138.738 318.5,139.5C 321.605,142.275 323.938,145.608 325.5,149.5C 325.427,151.027 326.094,152.027 327.5,152.5C 331.928,159.019 335.594,166.019 338.5,173.5C 338.12,175.698 338.787,177.365 340.5,178.5C 341.773,180.713 342.773,183.046 343.5,185.5C 343.12,187.698 343.787,189.365 345.5,190.5C 346.871,192.936 347.871,195.603 348.5,198.5C 348.12,200.698 348.787,202.365 350.5,203.5C 352.538,207.94 354.204,212.607 355.5,217.5C 355.12,219.698 355.787,221.365 357.5,222.5C 360.358,229.578 362.691,236.912 364.5,244.5C 365.35,248.553 366.516,252.553 368,256.5C 368.383,257.056 368.883,257.389 369.5,257.5C 370.669,260.341 371.669,263.341 372.5,266.5C 372.259,268.898 372.926,270.898 374.5,272.5C 375.404,273.209 375.737,274.209 375.5,275.5C 375.12,277.698 375.787,279.365 377.5,280.5C 377.5,280.833 377.5,281.167 377.5,281.5C 377.415,284.649 378.415,287.316 380.5,289.5C 380.166,292.491 381.166,294.824 383.5,296.5C 384.773,298.713 385.773,301.046 386.5,303.5C 386.5,304.5 386.5,305.5 386.5,306.5C 381.167,306.5 375.833,306.5 370.5,306.5C 364.801,306.312 359.134,306.645 353.5,307.5C 349.787,307.078 346.12,306.411 342.5,305.5C 338.3,294.898 334.3,284.232 330.5,273.5C 330.598,271.447 329.931,269.78 328.5,268.5C 326.98,266.11 325.98,263.443 325.5,260.5C 327.255,257.91 326.588,256.243 323.5,255.5C 321.6,252.482 320.267,249.149 319.5,245.5C 319.598,243.447 318.931,241.78 317.5,240.5C 313.314,231.447 309.647,222.114 306.5,212.5C 306.598,210.447 305.931,208.78 304.5,207.5C 303.463,206.07 302.796,204.403 302.5,202.5C 302.631,201.624 302.298,200.957 301.5,200.5C 300.503,207.134 300.17,213.8 300.5,220.5C 300.5,247.833 300.5,275.167 300.5,302.5C 303.5,302.5 306.5,302.5 309.5,302.5C 312.876,304.082 316.542,304.749 320.5,304.5C 322.735,304.205 324.735,304.539 326.5,305.5C 329.215,307.072 332.215,308.072 335.5,308.5C 337.703,308.604 339.703,309.27 341.5,310.5C 342.035,312.446 343.368,313.446 345.5,313.5C 347.167,314.5 348.5,315.833 349.5,317.5C 349.427,319.027 350.094,320.027 351.5,320.5C 354.164,322.484 355.831,325.151 356.5,328.5C 356.66,330.153 357.326,331.486 358.5,332.5C 359.358,340.132 359.691,347.799 359.5,355.5C 359.634,357.292 359.301,358.958 358.5,360.5C 356.595,364.216 355.261,368.216 354.5,372.5C 353.612,377.072 352.279,381.405 350.5,385.5C 349.85,385.804 349.183,386.137 348.5,386.5C 347.52,389.086 347.187,391.753 347.5,394.5C 341.763,415.042 335.43,435.375 328.5,455.5C 327.262,457.214 326.595,459.214 326.5,461.5C 325.262,463.214 324.595,465.214 324.5,467.5C 323.733,471.327 322.733,474.994 321.5,478.5C 318.34,481.774 317.007,485.774 317.5,490.5C 317.125,492.698 316.458,494.698 315.5,496.5C 314.069,497.78 313.402,499.447 313.5,501.5C 309.367,511.072 302.033,515.239 291.5,514C 288.316,513.246 285.649,511.746 283.5,509.5C 283.027,508.094 282.027,507.427 280.5,507.5C 278.748,505.754 277.415,503.754 276.5,501.5C 275.841,498.545 275.508,495.545 275.5,492.5C 276.889,487.731 277.556,482.731 277.5,477.5C 278.399,470.445 279.399,463.445 280.5,456.5C 283.089,449.881 284.423,442.881 284.5,435.5C 284.931,428.379 285.931,421.379 287.5,414.5C 289.76,409.527 290.76,404.194 290.5,398.5C 291.299,390.512 291.965,382.512 292.5,374.5C 292.715,372.821 292.048,371.821 290.5,371.5C 290.5,369.5 289.5,368.5 287.5,368.5C 277.859,366.98 267.859,365.98 257.5,365.5C 251.175,364.834 244.675,364.5 238,364.5C 227.626,364.354 217.459,365.021 207.5,366.5C 203.414,366.884 199.414,367.717 195.5,369C 193,370.167 191.167,372 190,374.5C 190.368,385.18 191.201,395.847 192.5,406.5C 192.24,412.194 193.24,417.527 195.5,422.5C 197.069,429.379 198.069,436.379 198.5,443.5C 198.24,449.194 199.24,454.527 201.5,459.5C 203.707,470.611 205.374,481.945 206.5,493.5C 204.769,509.722 195.769,516.222 179.5,513C 178.473,512.487 177.473,511.987 176.5,511.5C 176.027,510.094 175.027,509.427 173.5,509.5C 172.5,509.167 171.833,508.5 171.5,507.5C 171.463,504.047 170.129,501.381 167.5,499.5C 166.331,496.659 165.331,493.659 164.5,490.5C 164.472,487.084 163.472,484.084 161.5,481.5C 160.388,479.401 159.721,477.067 159.5,474.5C 159.813,471.753 159.48,469.086 158.5,466.5C 157.817,466.137 157.15,465.804 156.5,465.5C 154.463,460.383 152.796,455.05 151.5,449.5C 151.405,447.214 150.738,445.214 149.5,443.5C 148.13,440.381 147.13,437.048 146.5,433.5C 145.739,429.216 144.405,425.216 142.5,421.5C 141.061,419.412 140.394,417.079 140.5,414.5C 140.072,411.215 139.072,408.215 137.5,405.5C 136.13,402.381 135.13,399.048 134.5,395.5C 134.072,392.215 133.072,389.215 131.5,386.5C 129.796,382.383 128.463,378.049 127.5,373.5C 127.277,369.838 126.277,366.505 124.5,363.5C 123.699,361.958 123.366,360.292 123.5,358.5C 122.737,350.858 122.403,343.191 122.5,335.5C 123.108,332.673 124.108,330.007 125.5,327.5C 126.906,327.027 127.573,326.027 127.5,324.5C 128.026,322.77 129.026,321.436 130.5,320.5C 131.906,320.027 132.573,319.027 132.5,317.5C 132.833,316.5 133.5,315.833 134.5,315.5C 136.749,314.92 138.415,313.587 139.5,311.5C 141.336,309.412 143.669,308.079 146.5,307.5C 150.837,307.416 154.837,306.416 158.5,304.5C 159.5,304.5 160.5,304.5 161.5,304.5C 164.428,304.435 167.095,303.768 169.5,302.5C 173.076,301.515 176.742,300.848 180.5,300.5C 181.83,267.331 181.83,233.998 180.5,200.5C 179.702,200.957 179.369,201.624 179.5,202.5C 179.737,203.791 179.404,204.791 178.5,205.5C 177.326,206.514 176.66,207.847 176.5,209.5C 173.737,218.465 170.404,227.132 166.5,235.5C 165.069,236.78 164.402,238.447 164.5,240.5C 163.679,244.127 162.346,247.46 160.5,250.5C 159.069,251.78 158.402,253.447 158.5,255.5C 157.892,258.327 156.892,260.993 155.5,263.5C 154.069,264.78 153.402,266.447 153.5,268.5C 152.069,273.011 150.402,277.345 148.5,281.5C 147.069,282.78 146.402,284.447 146.5,286.5C 144.51,293.309 141.844,299.809 138.5,306C 136.527,306.495 134.527,306.662 132.5,306.5C 120.167,306.5 107.833,306.5 95.5,306.5C 95.5,305.167 95.5,303.833 95.5,302.5C 97.554,299.992 98.554,296.992 98.5,293.5C 99.129,290.603 100.129,287.936 101.5,285.5C 102.117,285.389 102.617,285.056 103,284.5C 104.484,280.553 105.65,276.553 106.5,272.5C 106.232,270.901 106.566,269.568 107.5,268.5C 109.655,266.383 110.655,263.716 110.5,260.5C 111.129,257.603 112.129,254.936 113.5,252.5C 114.117,252.389 114.617,252.056 115,251.5C 116.484,247.553 117.65,243.553 118.5,239.5C 118.5,239.167 118.5,238.833 118.5,238.5C 120.213,237.365 120.88,235.698 120.5,233.5C 122.074,231.898 122.741,229.898 122.5,227.5C 123.512,224.743 124.512,222.076 125.5,219.5C 127.655,217.383 128.655,214.716 128.5,211.5C 129.512,208.743 130.512,206.076 131.5,203.5C 133.834,201.824 134.834,199.491 134.5,196.5C 135.265,193.33 136.265,190.33 137.5,187.5C 139.213,186.365 139.88,184.698 139.5,182.5C 140.463,179.256 141.796,176.256 143.5,173.5C 145.245,171.967 146.245,169.967 146.5,167.5C 146.992,165.181 147.992,163.181 149.5,161.5C 151.931,159.954 153.264,157.621 153.5,154.5C 154.906,154.027 155.573,153.027 155.5,151.5C 155.328,150.508 155.662,149.842 156.5,149.5C 158.262,148.738 159.262,147.404 159.5,145.5C 159.427,143.973 160.094,142.973 161.5,142.5C 162.906,142.027 163.573,141.027 163.5,139.5C 164.5,137.833 165.833,136.5 167.5,135.5C 169.5,134.167 171.167,132.5 172.5,130.5C 182.009,120.749 193.676,115.249 207.5,114C 218.292,112.909 229.126,112.409 240,112.5C 249.006,112.5 257.84,112.834 266.5,113.5 Z"/></g>
<g><path style="opacity:0.086" fill="#fffbd6" d="M 266.5,113.5 C 270.79,113.198 274.79,113.864 278.5,115.5C 274.295,115.283 270.295,114.617 266.5,113.5 Z"/></g>
<g><path style="opacity:0.51" fill="#fff8ab" d="M 67.5,115.5 C 69.2624,116.262 70.2624,117.596 70.5,119.5C 68.7376,118.738 67.7376,117.404 67.5,115.5 Z"/></g>
<g><path style="opacity:0.184" fill="#fffbd1" d="M 291.5,119.5 C 293.553,119.402 295.22,120.069 296.5,121.5C 294.447,121.598 292.78,120.931 291.5,119.5 Z"/></g>
<g><path style="opacity:0.471" fill="#fff8a8" d="M 70.5,119.5 C 71.9063,119.973 72.573,120.973 72.5,122.5C 71.0937,122.027 70.427,121.027 70.5,119.5 Z"/></g>
<g><path style="opacity:0.294" fill="#fffbc3" d="M 456.5,121.5 C 457.906,121.973 458.573,122.973 458.5,124.5C 457.094,124.027 456.427,123.027 456.5,121.5 Z"/></g>
<g><path style="opacity:0.882" fill="#fff79e" d="M 303.5,125.5 C 305.23,126.026 306.564,127.026 307.5,128.5C 305.368,128.446 304.035,127.446 303.5,125.5 Z"/></g>
<g><path style="opacity:0.741" fill="#fff8ab" d="M 408.5,122.5 C 409.738,124.214 410.405,126.214 410.5,128.5C 408.72,127.01 408.054,125.01 408.5,122.5 Z"/></g>
<g><path style="opacity:0.898" fill="#fff7a4" d="M 23.5,100.5 C 22.6016,111.182 23.9349,121.516 27.5,131.5C 25.8639,130.251 24.6972,128.584 24,126.5C 22.3153,117.711 22.1486,109.045 23.5,100.5 Z"/></g>
<g><path style="opacity:0.004" fill="#fffce2" d="M 54.5,128.5 C 55.9063,128.973 56.573,129.973 56.5,131.5C 55.0937,131.027 54.427,130.027 54.5,128.5 Z"/></g>
<g><path style="opacity:0.039" fill="#fffacb" d="M 394.5,116.5 C 394.001,125.36 395.001,134.026 397.5,142.5C 395.738,139.497 394.572,136.163 394,132.5C 393.183,126.984 393.349,121.65 394.5,116.5 Z"/></g>
<g><path style="opacity:0.227" fill="#fffac8" d="M 462.5,130.5 C 463.906,130.973 464.573,131.973 464.5,133.5C 463.094,133.027 462.427,132.027 462.5,130.5 Z"/></g>
<g><path style="opacity:0.569" fill="#fff8aa" d="M 172.5,130.5 C 171.167,132.5 169.5,134.167 167.5,135.5C 168.167,132.833 169.833,131.167 172.5,130.5 Z"/></g>
<g><path style="opacity:0.196" fill="#fffacc" d="M 80.5,134.5 C 81.9063,134.973 82.573,135.973 82.5,137.5C 81.0937,137.027 80.427,136.027 80.5,134.5 Z"/></g>
<g><path style="opacity:0.592" fill="#fff9b8" d="M 315.5,135.5 C 317.262,136.262 318.262,137.596 318.5,139.5C 316.738,138.738 315.738,137.404 315.5,135.5 Z"/></g>
<g><path style="opacity:0.173" fill="#fffbcf" d="M 414.5,137.5 C 415.906,137.973 416.573,138.973 416.5,140.5C 415.094,140.027 414.427,139.027 414.5,137.5 Z"/></g>
<g><path style="opacity:0.039" fill="#fffce1" d="M 10.5,133.5 C 11.7682,135.905 12.4349,138.572 12.5,141.5C 10.9605,139.162 10.2938,136.495 10.5,133.5 Z"/></g>
<g><path style="opacity:0.412" fill="#fff8a8" d="M 30.5,138.5 C 31.9063,138.973 32.573,139.973 32.5,141.5C 31.0937,141.027 30.427,140.027 30.5,138.5 Z"/></g>
<g><path style="opacity:0.827" fill="#fff7a4" d="M 446.5,140.5 C 448.048,140.821 448.715,141.821 448.5,143.5C 447.599,142.71 446.932,141.71 446.5,140.5 Z"/></g>
<g><path style="opacity:0.373" fill="#fff9ba" d="M 163.5,139.5 C 163.573,141.027 162.906,142.027 161.5,142.5C 161.427,140.973 162.094,139.973 163.5,139.5 Z"/></g>
<g><path style="opacity:0.969" fill="#fff58a" d="M 468.5,141.5 C 470.065,143.509 471.065,145.843 471.5,148.5C 469.166,146.824 468.166,144.491 468.5,141.5 Z"/></g>
<g><path style="opacity:0.325" fill="#fff9b9" d="M 33.5,143.5 C 34.9063,143.973 35.573,144.973 35.5,146.5C 34.0937,146.027 33.427,145.027 33.5,143.5 Z"/></g>
<g><path style="opacity:0.384" fill="#fff9b1" d="M 418.5,144.5 C 419.906,144.973 420.573,145.973 420.5,147.5C 419.094,147.027 418.427,146.027 418.5,144.5 Z"/></g>
<g><path style="opacity:0.757" fill="#fff8a4" d="M 85.5,144.5 C 87.3104,147.145 88.3104,150.145 88.5,153.5C 86.5275,150.916 85.5275,147.916 85.5,144.5 Z"/></g>
<g><path style="opacity:0.584" fill="#fff79c" d="M 159.5,145.5 C 159.262,147.404 158.262,148.738 156.5,149.5C 156.738,147.596 157.738,146.262 159.5,145.5 Z"/></g>
<g><path style="opacity:0.439" fill="#fff8a7" d="M 36.5,148.5 C 37.9063,148.973 38.573,149.973 38.5,151.5C 37.0937,151.027 36.427,150.027 36.5,148.5 Z"/></g>
<g><path style="opacity:0.384" fill="#fff8ab" d="M 325.5,149.5 C 326.906,149.973 327.573,150.973 327.5,152.5C 326.094,152.027 325.427,151.027 325.5,149.5 Z"/></g>
<g><path style="opacity:0.373" fill="#fff8ae" d="M 421.5,149.5 C 422.906,149.973 423.573,150.973 423.5,152.5C 422.094,152.027 421.427,151.027 421.5,149.5 Z"/></g>
<g><path style="opacity:0.22" fill="#fffbc8" d="M 38.5,151.5 C 39.9063,151.973 40.573,152.973 40.5,154.5C 39.0937,154.027 38.427,153.027 38.5,151.5 Z"/></g>
<g><path style="opacity:0.463" fill="#fff7a2" d="M 155.5,151.5 C 155.573,153.027 154.906,154.027 153.5,154.5C 153.427,152.973 154.094,151.973 155.5,151.5 Z"/></g>
<g><path style="opacity:1" fill="#fff47b" d="M 153.5,154.5 C 153.264,157.621 151.931,159.954 149.5,161.5C 150.079,158.669 151.412,156.336 153.5,154.5 Z"/></g>
<g><path style="opacity:0.212" fill="#fffac8" d="M 427.5,159.5 C 428.906,159.973 429.573,160.973 429.5,162.5C 428.094,162.027 427.427,161.027 427.5,159.5 Z"/></g>
<g><path style="opacity:0.075" fill="#fffbd7" d="M 454.5,155.5 C 455.924,157.515 456.59,159.848 456.5,162.5C 455.076,160.485 454.41,158.152 454.5,155.5 Z"/></g>
<g><path style="opacity:0.259" fill="#fffac0" d="M 43.5,160.5 C 44.9063,160.973 45.573,161.973 45.5,163.5C 44.0937,163.027 43.427,162.027 43.5,160.5 Z"/></g>
<g><path style="opacity:0.6" fill="#fff799" d="M 472.5,155.5 C 473.283,158.509 473.95,161.676 474.5,165C 473.95,168.324 473.283,171.491 472.5,174.5C 472.5,168.167 472.5,161.833 472.5,155.5 Z"/></g>
<g><path style="opacity:0.925" fill="#fff697" d="M 146.5,167.5 C 146.245,169.967 145.245,171.967 143.5,173.5C 143.461,170.911 144.461,168.911 146.5,167.5 Z"/></g>
<g><path style="opacity:0.008" fill="#fffdec" d="M 434.5,173.5 C 435.931,174.78 436.598,176.447 436.5,178.5C 435.069,177.22 434.402,175.553 434.5,173.5 Z"/></g>
<g><path style="opacity:0.988" fill="#fff58e" d="M 49.5,173.5 C 51.2927,175.426 52.2927,177.759 52.5,180.5C 50.1663,178.824 49.1663,176.491 49.5,173.5 Z"/></g>
<g><path style="opacity:0.871" fill="#fff7a1" d="M 338.5,173.5 C 339.931,174.78 340.598,176.447 340.5,178.5C 338.787,177.365 338.12,175.698 338.5,173.5 Z"/></g>
<g><path style="opacity:0.435" fill="#fff9b0" d="M 71.5,160.5 C 73.7408,167.354 74.7408,174.521 74.5,182C 74.2323,191.743 73.2323,201.409 71.5,211C 71.324,213.359 71.9907,213.859 73.5,212.5C 73.037,215.569 71.7037,216.069 69.5,214C 73.8053,196.33 74.472,178.496 71.5,160.5 Z"/></g>
<g><path style="opacity:0.204" fill="#fffbd5" d="M 412.5,175.5 C 414.104,176.287 414.771,177.62 414.5,179.5C 413.326,178.486 412.66,177.153 412.5,175.5 Z"/></g>
<g><path style="opacity:0.361" fill="#fffac1" d="M 30.5,179.5 C 32.0739,181.102 32.7406,183.102 32.5,185.5C 31.2616,183.786 30.595,181.786 30.5,179.5 Z"/></g>
<g><path style="opacity:0.133" fill="#fffac6" d="M 88.5,175.5 C 88.4159,179.837 87.4159,183.837 85.5,187.5C 85.8984,183.239 86.8984,179.239 88.5,175.5 Z"/></g>
<g><path style="opacity:0.086" fill="#fffcdb" d="M 472.5,177.5 C 472.435,180.428 471.768,183.095 470.5,185.5C 470.294,182.505 470.96,179.838 472.5,177.5 Z"/></g>
<g><path style="opacity:0.545" fill="#fff7a6" d="M 52.5,180.5 C 53.2161,182.556 53.8828,184.723 54.5,187C 54.2716,187.399 53.9382,187.565 53.5,187.5C 52.5318,185.393 52.1984,183.059 52.5,180.5 Z"/></g>
<g><path style="opacity:0.776" fill="#fff79b" d="M 139.5,182.5 C 139.88,184.698 139.213,186.365 137.5,187.5C 137.796,185.597 138.463,183.93 139.5,182.5 Z"/></g>
<g><path style="opacity:0.831" fill="#fff7a0" d="M 343.5,185.5 C 344.931,186.78 345.598,188.447 345.5,190.5C 343.787,189.365 343.12,187.698 343.5,185.5 Z"/></g>
<g><path style="opacity:0.475" fill="#fff9b4" d="M 470.5,185.5 C 470.405,187.786 469.738,189.786 468.5,191.5C 468.259,189.102 468.926,187.102 470.5,185.5 Z"/></g>
<g><path style="opacity:0.412" fill="#fffbcd" d="M 417.5,187.5 C 419.773,192.451 420.773,197.784 420.5,203.5C 419.302,198.33 418.302,192.997 417.5,187.5 Z"/></g>
<g><path style="opacity:0.192" fill="#fffbd2" d="M 83.5,193.5 C 83.5979,195.553 82.9313,197.22 81.5,198.5C 81.4021,196.447 82.0687,194.78 83.5,193.5 Z"/></g>
<g><path style="opacity:0.812" fill="#fff58b" d="M 134.5,196.5 C 134.834,199.491 133.834,201.824 131.5,203.5C 131.707,200.759 132.707,198.426 134.5,196.5 Z"/></g>
<g><path style="opacity:0.812" fill="#fff79b" d="M 348.5,198.5 C 349.931,199.78 350.598,201.447 350.5,203.5C 348.787,202.365 348.12,200.698 348.5,198.5 Z"/></g>
<g><path style="opacity:0.275" fill="#fff9b7" d="M 437.5,185.5 C 438.166,189.319 438.499,193.319 438.5,197.5C 438.724,203.098 438.057,208.431 436.5,213.5C 437.354,204.195 437.687,194.861 437.5,185.5 Z"/></g>
<g><path style="opacity:0.698" fill="#fff7a3" d="M 457.5,196.5 C 457.638,201.414 456.972,206.081 455.5,210.5C 455.532,205.609 456.199,200.943 457.5,196.5 Z"/></g>
<g><path style="opacity:0.105" fill="#fffbd6" d="M 34.5,194.5 C 35.2679,195.263 35.7679,196.263 36,197.5C 36.1667,200.833 36.3333,204.167 36.5,207.5C 36.6657,212.755 35.999,217.755 34.5,222.5C 35.7945,213.163 35.7945,203.83 34.5,194.5 Z"/></g>
<g><path style="opacity:0.141" fill="#fffbd5" d="M 178.5,205.5 C 178.771,207.38 178.104,208.713 176.5,209.5C 176.66,207.847 177.326,206.514 178.5,205.5 Z"/></g>
<g><path style="opacity:0.267" fill="#fffac5" d="M 304.5,207.5 C 305.931,208.78 306.598,210.447 306.5,212.5C 305.069,211.22 304.402,209.553 304.5,207.5 Z"/></g>
<g><path style="opacity:0.153" fill="#fffbd3" d="M 53.5,205.5 C 53.5701,209.425 52.9034,213.091 51.5,216.5C 51.4299,212.575 52.0966,208.909 53.5,205.5 Z"/></g>
<g><path style="opacity:0.122" fill="#fffce3" d="M 455.5,210.5 C 455.131,212.993 455.797,213.66 457.5,212.5C 456.524,216.473 455.524,216.473 454.5,212.5C 454.543,211.584 454.876,210.917 455.5,210.5 Z"/></g>
<g><path style="opacity:0.248" fill="#fff9b1" d="M 302.5,202.5 C 301.51,208.31 301.177,214.31 301.5,220.5C 301.167,220.5 300.833,220.5 300.5,220.5C 300.17,213.8 300.503,207.134 301.5,200.5C 302.298,200.957 302.631,201.624 302.5,202.5 Z"/></g>
<g><path style="opacity:0.788" fill="#fff79b" d="M 128.5,211.5 C 128.655,214.716 127.655,217.383 125.5,219.5C 125.98,216.557 126.98,213.89 128.5,211.5 Z"/></g>
<g><path style="opacity:0.004" fill="#fffcd4" d="M 51.5,216.5 C 51.7406,218.898 51.0739,220.898 49.5,222.5C 49.595,220.214 50.2616,218.214 51.5,216.5 Z"/></g>
<g><path style="opacity:0.753" fill="#fff7a0" d="M 355.5,217.5 C 356.537,218.93 357.204,220.597 357.5,222.5C 355.787,221.365 355.12,219.698 355.5,217.5 Z"/></g>
<g><path style="opacity:0.635" fill="#fff9b9" d="M 420.5,213.5 C 420.877,218.453 420.211,223.119 418.5,227.5C 418.69,222.63 419.356,217.964 420.5,213.5 Z"/></g>
<g><path style="opacity:1" fill="#fff37f" d="M 434.5,221.5 C 434.598,223.553 433.931,225.22 432.5,226.5C 430.745,223.91 431.412,222.243 434.5,221.5 Z"/></g>
<g><path style="opacity:0.165" fill="#fffbd0" d="M 180.5,300.5 C 180.832,267.662 180.498,234.996 179.5,202.5C 179.369,201.624 179.702,200.957 180.5,200.5C 181.83,233.998 181.83,267.331 180.5,300.5 Z"/></g>
<g><path style="opacity:0.659" fill="#fff8b0" d="M 122.5,227.5 C 122.741,229.898 122.074,231.898 120.5,233.5C 120.595,231.214 121.262,229.214 122.5,227.5 Z"/></g>
<g><path style="opacity:0.077" fill="#fffce3" d="M 300.5,220.5 C 300.833,220.5 301.167,220.5 301.5,220.5C 301.5,247.5 301.5,274.5 301.5,301.5C 304.385,301.194 307.052,301.527 309.5,302.5C 306.5,302.5 303.5,302.5 300.5,302.5C 300.5,275.167 300.5,247.833 300.5,220.5 Z"/></g>
<g><path style="opacity:0.835" fill="#fff699" d="M 120.5,233.5 C 120.88,235.698 120.213,237.365 118.5,238.5C 118.796,236.597 119.463,234.93 120.5,233.5 Z"/></g>
<g><path style="opacity:0.208" fill="#fffbd3" d="M 166.5,235.5 C 166.598,237.553 165.931,239.22 164.5,240.5C 164.402,238.447 165.069,236.78 166.5,235.5 Z"/></g>
<g><path style="opacity:0.059" fill="#fffce0" d="M 41.5,239.5 C 41.573,241.027 40.9063,242.027 39.5,242.5C 39.427,240.973 40.0937,239.973 41.5,239.5 Z"/></g>
<g><path style="opacity:0.929" fill="#fff588" d="M 118.5,239.5 C 117.65,243.553 116.484,247.553 115,251.5C 114.617,252.056 114.117,252.389 113.5,252.5C 114.37,247.777 116.036,243.444 118.5,239.5 Z"/></g>
<g><path style="opacity:0.282" fill="#fffac7" d="M 317.5,240.5 C 318.931,241.78 319.598,243.447 319.5,245.5C 318.069,244.22 317.402,242.553 317.5,240.5 Z"/></g>
<g><path style="opacity:0.929" fill="#fff696" d="M 364.5,244.5 C 366.737,248.534 368.404,252.868 369.5,257.5C 368.883,257.389 368.383,257.056 368,256.5C 366.516,252.553 365.35,248.553 364.5,244.5 Z"/></g>
<g><path style="opacity:1" fill="#fff378" d="M 415.5,243.5 C 415.5,245.5 415.5,247.5 415.5,249.5C 416.5,249.5 417.5,249.5 418.5,249.5C 418.262,251.404 417.262,252.738 415.5,253.5C 413.797,254.66 413.131,253.993 413.5,251.5C 413.565,248.572 414.232,245.905 415.5,243.5 Z"/></g>
<g><path style="opacity:1" fill="#fff58c" d="M 31.5,242.5 C 31.5567,244.884 31.2234,247.218 30.5,249.5C 30.7472,250.713 31.4138,251.38 32.5,251.5C 31.8059,254.993 30.4725,255.659 28.5,253.5C 29.1364,249.608 30.1364,245.942 31.5,242.5 Z"/></g>
<g><path style="opacity:0.251" fill="#fffac8" d="M 160.5,250.5 C 160.598,252.553 159.931,254.22 158.5,255.5C 158.402,253.447 159.069,251.78 160.5,250.5 Z"/></g>
<g><path style="opacity:0.667" fill="#fffac6" d="M 413.5,251.5 C 413.131,253.993 413.797,254.66 415.5,253.5C 415.315,255.196 414.481,256.529 413,257.5C 411.507,255.437 411.674,253.437 413.5,251.5 Z"/></g>
<g><path style="opacity:1" fill="#fff37d" d="M 323.5,255.5 C 326.588,256.243 327.255,257.91 325.5,260.5C 324.069,259.22 323.402,257.553 323.5,255.5 Z"/></g>
<g><path style="opacity:0.847" fill="#fff693" d="M 110.5,260.5 C 110.655,263.716 109.655,266.383 107.5,268.5C 107.98,265.557 108.98,262.89 110.5,260.5 Z"/></g>
<g><path style="opacity:0.176" fill="#fffbd6" d="M 155.5,263.5 C 155.598,265.553 154.931,267.22 153.5,268.5C 153.402,266.447 154.069,264.78 155.5,263.5 Z"/></g>
<g><path style="opacity:0.651" fill="#fff8b0" d="M 372.5,266.5 C 373.738,268.214 374.405,270.214 374.5,272.5C 372.926,270.898 372.259,268.898 372.5,266.5 Z"/></g>
<g><path style="opacity:0.239" fill="#fffbcb" d="M 328.5,268.5 C 329.931,269.78 330.598,271.447 330.5,273.5C 329.069,272.22 328.402,270.553 328.5,268.5 Z"/></g>
<g><path style="opacity:0.965" fill="#fff480" d="M 106.5,272.5 C 105.65,276.553 104.484,280.553 103,284.5C 102.617,285.056 102.117,285.389 101.5,285.5C 102.37,280.777 104.036,276.444 106.5,272.5 Z"/></g>
<g><path style="opacity:0.82" fill="#fff79f" d="M 375.5,275.5 C 376.537,276.93 377.204,278.597 377.5,280.5C 375.787,279.365 375.12,277.698 375.5,275.5 Z"/></g>
<g><path style="opacity:0.2" fill="#fffbd4" d="M 148.5,281.5 C 148.598,283.553 147.931,285.22 146.5,286.5C 146.402,284.447 147.069,282.78 148.5,281.5 Z"/></g>
<g><path style="opacity:0.863" fill="#fff799" d="M 377.5,281.5 C 379.267,283.792 380.267,286.458 380.5,289.5C 378.415,287.316 377.415,284.649 377.5,281.5 Z"/></g>
<g><path style="opacity:0.918" fill="#fff79d" d="M 380.5,289.5 C 382.065,291.509 383.065,293.843 383.5,296.5C 381.166,294.824 380.166,292.491 380.5,289.5 Z"/></g>
<g><path style="opacity:0.98" fill="#fff589" d="M 98.5,293.5 C 98.554,296.992 97.554,299.992 95.5,302.5C 95.9281,299.215 96.9281,296.215 98.5,293.5 Z"/></g>
<g><path style="opacity:0.714" fill="#fff7a1" d="M 169.5,302.5 C 167.095,303.768 164.428,304.435 161.5,304.5C 163.838,302.96 166.505,302.294 169.5,302.5 Z"/></g>
<g><path style="opacity:0.863" fill="#fff585" d="M 309.5,302.5 C 313.458,302.251 317.124,302.918 320.5,304.5C 316.542,304.749 312.876,304.082 309.5,302.5 Z"/></g>
<g><path style="opacity:0.553" fill="#fff9bf" d="M 158.5,304.5 C 154.837,306.416 150.837,307.416 146.5,307.5C 150.239,305.898 154.239,304.898 158.5,304.5 Z"/></g>
<g><path style="opacity:0.016" fill="#fffbcf" d="M 326.5,305.5 C 329.916,305.528 332.916,306.528 335.5,308.5C 332.215,308.072 329.215,307.072 326.5,305.5 Z"/></g>
<g><path style="opacity:0.16" fill="#fffbd4" d="M 95.5,302.5 C 95.5,303.833 95.5,305.167 95.5,306.5C 107.833,306.5 120.167,306.5 132.5,306.5C 120.007,307.66 107.34,307.827 94.5,307C 94.1667,306.667 93.8333,306.333 93.5,306C 94.0848,304.698 94.7515,303.531 95.5,302.5 Z"/></g>
<g><path style="opacity:0.162" fill="#fffcd9" d="M 386.5,303.5 C 387.434,304.568 387.768,305.901 387.5,307.5C 381.642,307.822 375.975,307.489 370.5,306.5C 375.833,306.5 381.167,306.5 386.5,306.5C 386.5,305.5 386.5,304.5 386.5,303.5 Z"/></g>
<g><path style="opacity:0.843" fill="#fff8ab" d="M 341.5,310.5 C 343.23,311.026 344.564,312.026 345.5,313.5C 343.368,313.446 342.035,312.446 341.5,310.5 Z"/></g>
<g><path style="opacity:0.191" fill="#fffcdc" d="M 37.5,314.5 C 66.6619,313.502 95.9953,313.169 125.5,313.5C 125.771,315.38 125.104,316.713 123.5,317.5C 123.414,316.504 123.748,315.671 124.5,315C 95.5019,314.5 66.5019,314.333 37.5,314.5 Z"/></g>
<g><path style="opacity:0.191" fill="#fffcd8" d="M 452.5,314.5 C 420.662,314.168 388.996,314.502 357.5,315.5C 356.957,315.44 356.624,315.107 356.5,314.5C 388.664,313.17 420.664,313.17 452.5,314.5 Z"/></g>
<g><path style="opacity:0.816" fill="#fff588" d="M 139.5,311.5 C 138.415,313.587 136.749,314.92 134.5,315.5C 135.585,313.413 137.251,312.08 139.5,311.5 Z"/></g>
<g><path style="opacity:1" fill="#ffed19" d="M 452.5,314.5 C 457.844,314.334 463.177,314.501 468.5,315C 471.445,315.139 473.779,316.306 475.5,318.5C 476.656,320.824 477.656,323.157 478.5,325.5C 479.837,349.503 479.67,373.503 478,397.5C 476.891,399.815 475.057,401.315 472.5,402C 432.831,403.959 393.164,403.959 353.5,402C 352.316,400.855 352.316,399.688 353.5,398.5C 355.806,394.915 357.139,390.915 357.5,386.5C 357.41,383.848 358.076,381.515 359.5,379.5C 360.687,377.653 362.021,375.82 363.5,374C 363.005,371.991 363.005,369.824 363.5,367.5C 363.366,365.708 363.699,364.042 364.5,362.5C 366.28,361.01 366.946,359.01 366.5,356.5C 367.32,350.203 367.653,343.869 367.5,337.5C 367.472,334.084 366.472,331.084 364.5,328.5C 362.452,324.074 360.118,319.74 357.5,315.5C 388.996,314.502 420.662,314.168 452.5,314.5 Z"/></g>
<g><path style="opacity:1" fill="#ffed1a" d="M 37.5,314.5 C 66.5019,314.333 95.5019,314.5 124.5,315C 123.748,315.671 123.414,316.504 123.5,317.5C 116.379,328.519 113.379,340.519 114.5,353.5C 114.528,356.916 115.528,359.916 117.5,362.5C 118.768,364.905 119.435,367.572 119.5,370.5C 119.795,374.228 120.461,377.895 121.5,381.5C 122.183,381.863 122.85,382.196 123.5,382.5C 123.054,385.01 123.72,387.01 125.5,388.5C 126.301,390.042 126.634,391.708 126.5,393.5C 126.259,395.898 126.926,397.898 128.5,399.5C 129.833,400.167 129.833,400.833 128.5,401.5C 125.941,401.198 123.607,401.532 121.5,402.5C 88.2165,403.49 55.2165,403.824 22.5,403.5C 18.2207,402.726 13.8874,402.226 9.5,402C 7.91941,401.293 6.41941,400.46 5,399.5C 3.82597,394.25 3.1593,388.916 3,383.5C 2.33333,365.5 2.33333,347.5 3,329.5C 2.32065,322.481 5.15398,317.648 11.5,315C 20.1603,314.5 28.8269,314.334 37.5,314.5 Z"/></g>
<g><path style="opacity:0.651" fill="#fff7a3" d="M 132.5,317.5 C 132.573,319.027 131.906,320.027 130.5,320.5C 130.427,318.973 131.094,317.973 132.5,317.5 Z"/></g>
<g><path style="opacity:0.439" fill="#fff8ad" d="M 349.5,317.5 C 350.906,317.973 351.573,318.973 351.5,320.5C 350.094,320.027 349.427,319.027 349.5,317.5 Z"/></g>
<g><path style="opacity:0.557" fill="#fff8a9" d="M 475.5,318.5 C 478.092,320.036 479.092,322.369 478.5,325.5C 477.656,323.157 476.656,320.824 475.5,318.5 Z"/></g>
<g><path style="opacity:0.11" fill="#fffbd4" d="M 127.5,324.5 C 127.573,326.027 126.906,327.027 125.5,327.5C 125.427,325.973 126.094,324.973 127.5,324.5 Z"/></g>
<g><path style="opacity:0.078" fill="#fffbcd" d="M 356.5,328.5 C 358.104,329.287 358.771,330.62 358.5,332.5C 357.326,331.486 356.66,330.153 356.5,328.5 Z"/></g>
<g><path style="opacity:0.286" fill="#fffac5" d="M 364.5,328.5 C 366.472,331.084 367.472,334.084 367.5,337.5C 365.928,334.785 364.928,331.785 364.5,328.5 Z"/></g>
<g><path style="opacity:0.785" fill="#fff699" d="M 122.5,335.5 C 122.403,343.191 122.737,350.858 123.5,358.5C 120.043,350.944 119.71,343.277 122.5,335.5 Z"/></g>
<g><path style="opacity:0.79" fill="#fff691" d="M 358.5,332.5 C 361.904,340.055 362.238,347.721 359.5,355.5C 359.691,347.799 359.358,340.132 358.5,332.5 Z"/></g>
<g><path style="opacity:0.588" fill="#fff8a7" d="M 114.5,353.5 C 116.072,356.215 117.072,359.215 117.5,362.5C 115.528,359.916 114.528,356.916 114.5,353.5 Z"/></g>
<g><path style="opacity:0.792" fill="#fff7a3" d="M 366.5,356.5 C 366.946,359.01 366.28,361.01 364.5,362.5C 364.595,360.214 365.262,358.214 366.5,356.5 Z"/></g>
<g><path style="opacity:0.008" fill="#fffbd3" d="M 358.5,360.5 C 358.139,364.915 356.806,368.915 354.5,372.5C 355.261,368.216 356.595,364.216 358.5,360.5 Z"/></g>
<g><path style="opacity:0.012" fill="#fffde2" d="M 257.5,365.5 C 240.823,365.426 224.156,365.76 207.5,366.5C 217.459,365.021 227.626,364.354 238,364.5C 244.675,364.5 251.175,364.834 257.5,365.5 Z"/></g>
<g><path style="opacity:0.008" fill="#fffcd8" d="M 124.5,363.5 C 126.277,366.505 127.277,369.838 127.5,373.5C 125.723,370.495 124.723,367.162 124.5,363.5 Z"/></g>
<g><path style="opacity:0.698" fill="#fff7a7" d="M 287.5,368.5 C 289.5,368.5 290.5,369.5 290.5,371.5C 289.167,370.833 288.167,369.833 287.5,368.5 Z"/></g>
<g><path style="opacity:0.373" fill="#fff9b9" d="M 239.5,371.5 C 239.5,371.833 239.5,372.167 239.5,372.5C 227.153,372.449 214.82,372.783 202.5,373.5C 204.631,372.686 206.964,372.186 209.5,372C 219.494,371.5 229.494,371.334 239.5,371.5 Z"/></g>
<g><path style="opacity:0.619" fill="#fff8a8" d="M 265.5,371.5 C 265.5,371.833 265.5,372.167 265.5,372.5C 256.833,372.5 248.167,372.5 239.5,372.5C 239.5,372.167 239.5,371.833 239.5,371.5C 248.097,370.633 256.763,370.633 265.5,371.5 Z"/></g>
<g><path style="opacity:0.82" fill="#fff7a2" d="M 290.5,371.5 C 292.048,371.821 292.715,372.821 292.5,374.5C 291.599,373.71 290.932,372.71 290.5,371.5 Z"/></g>
<g><path style="opacity:1" fill="#ffed21" d="M 239.5,372.5 C 248.167,372.5 256.833,372.5 265.5,372.5C 271.934,372.327 278.267,372.994 284.5,374.5C 285.167,374.5 285.5,374.833 285.5,375.5C 285.49,384.225 284.823,392.891 283.5,401.5C 269.683,402.833 255.516,403.499 241,403.5C 226.663,403.5 212.496,403.167 198.5,402.5C 198.72,397.9 198.054,393.567 196.5,389.5C 195.393,384.919 195.227,380.252 196,375.5C 197.897,373.984 200.064,373.317 202.5,373.5C 214.82,372.783 227.153,372.449 239.5,372.5 Z"/></g>
<g><path style="opacity:0.176" fill="#fffbd3" d="M 265.5,372.5 C 265.5,372.167 265.5,371.833 265.5,371.5C 269.514,371.334 273.514,371.501 277.5,372C 280.191,372.156 282.524,372.989 284.5,374.5C 278.267,372.994 271.934,372.327 265.5,372.5 Z"/></g>
<g><path style="opacity:1" fill="#fff265" d="M 363.5,367.5 C 363.005,369.824 363.005,371.991 363.5,374C 362.021,375.82 360.687,377.653 359.5,379.5C 360.261,375.216 361.595,371.216 363.5,367.5 Z"/></g>
<g><path style="opacity:1" fill="#fff26b" d="M 119.5,370.5 C 121.405,374.216 122.739,378.216 123.5,382.5C 122.85,382.196 122.183,381.863 121.5,381.5C 120.461,377.895 119.795,374.228 119.5,370.5 Z"/></g>
<g><path style="opacity:0.071" fill="#fffbcf" d="M 285.5,375.5 C 286.919,384.291 286.253,392.958 283.5,401.5C 284.823,392.891 285.49,384.225 285.5,375.5 Z"/></g>
<g><path style="opacity:0.847" fill="#fff7a3" d="M 123.5,382.5 C 124.738,384.214 125.405,386.214 125.5,388.5C 123.72,387.01 123.054,385.01 123.5,382.5 Z"/></g>
<g><path style="opacity:1" fill="#fff47f" d="M 350.5,385.5 C 350.072,388.785 349.072,391.785 347.5,394.5C 347.187,391.753 347.52,389.086 348.5,386.5C 349.183,386.137 349.85,385.804 350.5,385.5 Z"/></g>
<g><path style="opacity:0.008" fill="#fffbd2" d="M 131.5,386.5 C 133.072,389.215 134.072,392.215 134.5,395.5C 132.528,392.916 131.528,389.916 131.5,386.5 Z"/></g>
<g><path style="opacity:0.792" fill="#fff8ab" d="M 357.5,386.5 C 357.139,390.915 355.806,394.915 353.5,398.5C 354.261,394.216 355.595,390.216 357.5,386.5 Z"/></g>
<g><path style="opacity:0.235" fill="#fffac6" d="M 196.5,389.5 C 198.054,393.567 198.72,397.9 198.5,402.5C 197.105,398.409 196.438,394.076 196.5,389.5 Z"/></g>
<g><path style="opacity:0.541" fill="#fff79d" d="M 126.5,393.5 C 128.074,395.102 128.741,397.102 128.5,399.5C 126.926,397.898 126.259,395.898 126.5,393.5 Z"/></g>
<g><path style="opacity:0.729" fill="#fff68d" d="M 121.5,402.5 C 123.607,401.532 125.941,401.198 128.5,401.5C 126.264,402.982 123.931,403.315 121.5,402.5 Z"/></g>
<g><path style="opacity:0.839" fill="#fff697" d="M 290.5,398.5 C 290.76,404.194 289.76,409.527 287.5,414.5C 287.871,408.924 288.871,403.591 290.5,398.5 Z"/></g>
<g><path style="opacity:0.012" fill="#fffbce" d="M 137.5,405.5 C 139.072,408.215 140.072,411.215 140.5,414.5C 138.528,411.916 137.528,408.916 137.5,405.5 Z"/></g>
<g><path style="opacity:0.725" fill="#fff79a" d="M 192.5,406.5 C 194.129,411.591 195.129,416.924 195.5,422.5C 193.24,417.527 192.24,412.194 192.5,406.5 Z"/></g>
<g><path style="opacity:0.004" fill="#fffbd2" d="M 142.5,421.5 C 144.405,425.216 145.739,429.216 146.5,433.5C 144.194,429.915 142.861,425.915 142.5,421.5 Z"/></g>
<g><path style="opacity:0.894" fill="#fff698" d="M 284.5,435.5 C 284.423,442.881 283.089,449.881 280.5,456.5C 281.097,449.237 282.43,442.237 284.5,435.5 Z"/></g>
<g><path style="opacity:0.016" fill="#fffbd4" d="M 149.5,443.5 C 150.738,445.214 151.405,447.214 151.5,449.5C 149.926,447.898 149.259,445.898 149.5,443.5 Z"/></g>
<g><path style="opacity:0.882" fill="#fff691" d="M 198.5,443.5 C 200.129,448.591 201.129,453.924 201.5,459.5C 199.24,454.527 198.24,449.194 198.5,443.5 Z"/></g>
<g><path style="opacity:0.004" fill="#fffce2" d="M 328.5,455.5 C 328.741,457.898 328.074,459.898 326.5,461.5C 326.595,459.214 327.262,457.214 328.5,455.5 Z"/></g>
<g><path style="opacity:0.016" fill="#fffbca" d="M 326.5,461.5 C 326.741,463.898 326.074,465.898 324.5,467.5C 324.595,465.214 325.262,463.214 326.5,461.5 Z"/></g>
<g><path style="opacity:1" fill="#fff37a" d="M 156.5,465.5 C 157.15,465.804 157.817,466.137 158.5,466.5C 159.48,469.086 159.813,471.753 159.5,474.5C 157.928,471.785 156.928,468.785 156.5,465.5 Z"/></g>
<g><path style="opacity:1" fill="#fff486" d="M 321.5,478.5 C 320.739,482.784 319.405,486.784 317.5,490.5C 317.007,485.774 318.34,481.774 321.5,478.5 Z"/></g>
<g><path style="opacity:0.341" fill="#fffac0" d="M 161.5,481.5 C 163.472,484.084 164.472,487.084 164.5,490.5C 162.928,487.785 161.928,484.785 161.5,481.5 Z"/></g>
<g><path style="opacity:0.729" fill="#fff79d" d="M 277.5,477.5 C 277.556,482.731 276.889,487.731 275.5,492.5C 275.5,491.833 275.5,491.167 275.5,490.5C 275.438,485.924 276.105,481.591 277.5,477.5 Z"/></g>
<g><path style="opacity:0.086" fill="#fffce2" d="M 275.5,490.5 C 275.5,491.167 275.5,491.833 275.5,492.5C 275.508,495.545 275.841,498.545 276.5,501.5C 275.003,499.71 274.336,497.544 274.5,495C 274.508,493.293 274.842,491.793 275.5,490.5 Z"/></g>
<g><path style="opacity:0.278" fill="#fffac5" d="M 315.5,496.5 C 315.598,498.553 314.931,500.22 313.5,501.5C 313.402,499.447 314.069,497.78 315.5,496.5 Z"/></g>
<g><path style="opacity:1" fill="#fff47d" d="M 167.5,499.5 C 170.129,501.381 171.463,504.047 171.5,507.5C 169.127,505.421 167.794,502.754 167.5,499.5 Z"/></g>
<g><path style="opacity:0.482" fill="#fffabd" d="M 280.5,507.5 C 282.027,507.427 283.027,508.094 283.5,509.5C 281.973,509.573 280.973,508.906 280.5,507.5 Z"/></g>
<g><path style="opacity:0.408" fill="#fff9b0" d="M 173.5,509.5 C 175.027,509.427 176.027,510.094 176.5,511.5C 174.973,511.573 173.973,510.906 173.5,509.5 Z"/></g>
</svg>
