<svg xmlns="http://www.w3.org/2000/svg" version="1.0" width="200.000000pt" height="200.000000pt" viewBox="0 0 200.000000 200.000000" preserveAspectRatio="xMidYMid meet">

<g transform="translate(0.000000,200.000000) scale(0.100000,-0.100000)" fill="#ffed0a" stroke="none">
<path d="M1240 1928 c-141 -71 -108 -285 48 -314 51 -10 100 4 141 41 70 63 78 164 18 232 -58 65 -130 80 -207 41z" fill="#ffed0a"/>
<path d="M1185 1559 c-17 -4 -45 -23 -62 -41 -35 -36 -203 -387 -203 -423 0 -29 40 -65 71 -65 37 0 60 31 114 150 26 58 51 109 56 115 22 23 7 -231 -31 -530 -22 -170 -40 -315 -40 -322 0 -10 22 -13 79 -13 94 0 79 -35 117 278 15 122 30 222 34 222 3 0 19 -102 34 -227 15 -126 30 -238 33 -250 5 -22 10 -23 84 -23 57 0 79 4 79 13 0 6 -18 152 -40 322 -39 299 -53 553 -31 530 5 -6 30 -57 56 -115 54 -120 77 -150 115 -150 31 0 70 37 70 66 0 36 -169 387 -203 422 -17 18 -47 37 -67 42 -43 12 -223 12 -265 -1z" fill="#ffed0a"/>
<path d="M337 1396 c-115 -32 -224 -148 -247 -263 -34 -160 47 -326 190 -393 l50 -23 0 -229 0 -228 -101 0 -101 0 -34 -34 c-47 -47 -47 -95 0 -142 l34 -34 872 0 872 0 34 34 c38 38 44 77 19 126 -20 39 -43 50 -108 50 l-54 0 -6 40 c-10 74 16 70 -437 70 -381 0 -408 -1 -423 -18 -10 -10 -17 -35 -17 -55 l0 -37 -170 0 -170 0 0 228 0 227 55 29 c68 35 129 100 163 174 22 47 26 72 27 137 0 69 -5 89 -31 145 -59 124 -166 198 -298 206 -42 2 -90 -2 -119 -10z m226 -109 c108 -63 159 -184 126 -299 l-10 -38 -245 0 c-282 0 -259 -10 -259 110 1 57 6 85 22 115 28 53 77 99 133 125 64 30 170 24 233 -13z" fill="#ffed0a"/>
<path d="M404 1245 c-10 -25 4 -45 30 -45 25 0 39 20 30 45 -4 8 -17 15 -30 15 -14 0 -27 -7 -30 -15z" fill="#ffed0a"/>
<path d="M287 1203 c-14 -13 -7 -43 12 -53 15 -7 23 -6 35 6 19 19 20 26 4 42 -13 13 -41 16 -51 5z" fill="#ffed0a"/>
<path d="M458 1139 c-68 -43 -78 -54 -78 -79 0 -35 38 -65 69 -55 11 3 40 41 65 84 71 120 62 127 -56 50z" fill="#ffed0a"/>
<path d="M237 1084 c-13 -13 -7 -52 8 -58 27 -10 46 5 43 33 -3 26 -35 41 -51 25z" fill="#ffed0a"/>
<path d="M580 1076 c-27 -33 18 -72 48 -42 13 13 14 20 6 34 -15 23 -38 26 -54 8z" fill="#ffed0a"/>
</g>
</svg>