<svg xmlns="http://www.w3.org/2000/svg" viewBox="0 0 151.784 238.913"><path d="M103.751 231.518c-2.727.55-9.288.785-13.508.821 1.398 3.697 4.89 6.397 9.089 6.565 4.969.198 9.239-3.21 10.303-7.89-.827.07-1.698.135-2.612.201-1.357.098-2.76.199-3.272.303zm-57.734-.303c-.916-.066-1.788-.131-2.615-.201.92 4.028 4.257 7.25 8.594 7.813 4.765.619 9.178-2.178 10.802-6.488-4.22-.036-10.782-.27-13.51-.822-.512-.103-1.915-.204-3.271-.302zm-29.615-97.353a6.06 6.06 0 0 0 2.812.723c4.337 6.286 18.954 28.807 18.442 46.08-.6 20.27 2.483 40.398-1.232 43.949-3.716 3.55 10.54 3.373 13.458 3.963s11.863.853 16.266.743c4.404-.11 1.252-2.966 1.657-6.381.96-8.082 2.886-36.034 4.51-39.597.823-1.808 2.164-7.947 3.183-15.673h2.044c1.02 7.726 2.36 13.865 3.184 15.673 1.623 3.563 3.55 31.515 4.509 39.597.405 3.415-2.747 6.27 1.657 6.38 4.404.111 13.348-.153 16.266-.742s17.174-.413 13.459-3.964c-3.716-3.55-.633-23.679-1.233-43.949-.512-17.276 14.112-39.803 18.445-46.083a6.113 6.113 0 0 0 6.05-5.393c.498-4.178.602-8.644-.316-13.222-.857-4.57-2.913-9.068-5.216-12.713-2.293-3.655-4.593-6.602-5.751-9.015-.612-1.213-.952-2.272-1.153-3.314l-.723-2.855c-.244-1.005-.579-2.002-.867-3.005-2.46-7.982-6.268-16.003-12.217-23.012-2.988-3.476-6.472-6.682-10.506-9.318a44.568 44.568 0 0 0-6.44-3.521 40.788 40.788 0 0 0-3.583-1.383 28.864 28.864 0 0 0-2.892-.806c-4.01 2.395-8.694 3.776-13.695 3.776s-9.685-1.381-13.695-3.776a28.929 28.929 0 0 0-2.892.806c-1.25.415-2.436.878-3.584 1.383a44.56 44.56 0 0 0-6.438 3.521c-4.035 2.636-7.519 5.842-10.506 9.318-5.95 7.01-9.758 15.03-12.217 23.012-.29 1.003-.623 2-.868 3.005l-.723 2.855c-.2 1.042-.54 2.101-1.153 3.314-1.158 2.413-3.458 5.36-5.75 9.015-2.304 3.645-4.36 8.143-5.216 12.713-.919 4.578-.815 9.044-.316 13.222.24 2.04 1.498 3.755 3.24 4.674zm60.118 2.377c28.38 0 45.985-3.222 51.503-5.79a6.123 6.123 0 0 0 1.798 2.647c-11.865 6.356-51.336 6.443-53.3 6.443-1.965 0-41.414-.087-53.29-6.438a6.123 6.123 0 0 0 1.788-2.626c5.514 2.542 23.12 5.764 51.502 5.764zm34.675-40.447c.877 2.54 2.122 4.9 3.464 6.873 1.341 2.002 2.735 3.652 4.005 5.125 1.279 1.475 2.422 2.756 3.428 4 1.986 2.465 3.387 4.745 4.29 7.462.788 2.306 1.15 4.926 1.25 7.685-2.698-.968-6.491-1.9-11.825-2.754-1.35-.216-2.76-.42-4.219-.61.005 1.882-.015 3.72-.072 5.508h-2.995c.16-4.748 0-9.9 0-15.293 0-9.045-1.696-19.447-4.916-28.861h2.763c.372.65.733 1.31 1.081 1.985a57.183 57.183 0 0 1 1.903 4.063c.305.77.653 1.516.928 2.308l.915 2.509zm-84.536 23.46c.902-2.716 2.303-4.997 4.29-7.462 1.005-1.244 2.149-2.524 3.427-4 1.27-1.473 2.664-3.123 4.005-5.125a29.562 29.562 0 0 0 3.465-6.873l.914-2.509c.275-.792.624-1.538.928-2.308a57.249 57.249 0 0 1 1.901-4.06c.349-.675.71-1.337 1.083-1.988h2.763c-3.22 9.415-4.915 19.816-4.915 28.86 0 5.395-.16 10.546 0 15.295h-2.996a159.736 159.736 0 0 1-.073-5.51c-1.458.192-2.867.395-4.217.611-5.334.855-9.128 1.786-11.825 2.754.1-2.76.461-5.378 1.25-7.685z" fill="#ffed0a"/><path d="M100.52 24c0-13.255-10.745-24-24-24s-24 10.745-24 24 10.745 24 24 24 24-10.745 24-24zm-34.162 9.217s17.315 2.545 27.755-4.709c0 0-10.095 23.403-27.755 4.709zM9.051 138.015a.998.998 0 0 0 1.358-.605 1.003 1.003 0 0 0-.538-1.219c-.02-.009-2.042-.953-2.736-2.921-.445-1.26-.262-2.715.544-4.322a1 1 0 0 0-1.788-.895c-1.063 2.121-1.277 4.108-.634 5.906.992 2.776 3.68 4.005 3.794 4.056z" fill="#ffed0a"/><path d="M5.561 141.333a.999.999 0 0 0 1.406-.582 1.002 1.002 0 0 0-.49-1.196c-.032-.017-3.175-1.683-4.17-4.965-.65-2.15-.259-4.556 1.172-7.155a1 1 0 0 0-1.753-.964c-1.702 3.099-2.148 6.033-1.325 8.723 1.254 4.095 5 6.057 5.16 6.14zm135.854-3.82c.227.502.815.727 1.318.502.113-.05 2.802-1.28 3.793-4.056.643-1.798.43-3.785-.633-5.907a1 1 0 1 0-1.788.896c.806 1.607.988 3.061.543 4.322-.693 1.968-2.715 2.912-2.736 2.921a1.002 1.002 0 0 0-.497 1.323z" fill="#ffed0a"/><path d="M148.7 126.077a1.002 1.002 0 0 0-.395 1.358c1.43 2.599 1.823 5.006 1.17 7.155-.994 3.282-4.136 4.948-4.167 4.965a1.002 1.002 0 0 0-.429 1.346.999.999 0 0 0 1.344.432c.159-.082 3.906-2.044 5.16-6.139.823-2.69.377-5.624-1.325-8.723a1 1 0 0 0-1.359-.394z" fill="#ffed0a"/></svg>